<svg xmlns="http://www.w3.org/2000/svg" viewBox="0 0 256.37 256.37" class="icon icon-chat"><defs><style>.icon-chat-cls-1{fill:#fff;}.icon-chat-cls-2{fill:#ff7552;}.icon-chat-cls-3{fill:#2d2d2e;}</style></defs><title>ic</title><g id="Layer_4" data-name="Layer 4"><path class="icon-chat-cls-1" d="M161.37,146v18h2l18-18h10a4,4,0,0,0,4-4V76a4,4,0,0,0-4-4h-50c-6,0-10,4-12,8l-18,38v2h10v22a4,4,0,0,0,4,4Z"/><path class="icon-chat-cls-2" d="M125.37,94c9.94,0,12,6,18,18h0l10,20v2h-10v28a4,4,0,0,1-4,4h-30v20h-2l-20-20h-14a4,4,0,0,1-4-4V98a4,4,0,0,1,4-4Z"/><rect class="icon-chat-cls-3" x="149.37" y="94" width="36" height="4"/><rect class="icon-chat-cls-3" x="173.37" y="102" width="12" height="4"/><rect class="icon-chat-cls-3" x="145.37" y="86" width="16" height="4"/><path class="icon-chat-cls-3" d="M164.2,166h-4.83V148h-12v-4h16v17.17L180.54,144h10.83a2,2,0,0,0,2-2V76a2,2,0,0,0-2-2h-50c-6.1,0-9.17,4.82-10.21,6.89L113.59,118h9.79v24a2,2,0,0,0,2,2h18v4h-18a6,6,0,0,1-6-6V122h-10v-4.45l18.19-38.41c2.87-5.74,8-9.14,13.81-9.14h50a6,6,0,0,1,6,6v66a6,6,0,0,1-6,6H182.2Z"/><rect class="icon-chat-cls-3" x="91.37" y="130" width="4" height="4"/><rect class="icon-chat-cls-3" x="99.37" y="130" width="4" height="4"/><rect class="icon-chat-cls-3" x="107.37" y="130" width="4" height="4"/><rect class="icon-chat-cls-3" x="165.37" y="86" width="20" height="4"/><rect class="icon-chat-cls-3" x="153.37" y="102" width="16" height="4"/></g></svg>