<svg xmlns="http://www.w3.org/2000/svg" viewBox="0 0 256.37 256.37" class="icon icon-company"><defs><style>.icon-cls-1{fill:#a8a7a5;}.icon-cls-2{fill:#ff7552;}.icon-cls-3{fill:#e8e6e4;}.icon-cls-4{fill:#2d2d2e;}.icon-cls-5{fill:#595857;}.icon-cls-6{fill:#fff;}</style></defs><title>ic</title><g id="Layer_4" data-name="Layer 4"><polygon class="icon-cls-1" points="138.37 110 128.37 114 118.37 110 118.37 102 138.37 102 138.37 110"/><path class="icon-cls-2" d="M146.37,118l-2-2-8,8-8-6-8,6-8-8-2,2c-16,10-26,11.61-26,24v30h88V142C172.37,129.61,162.37,128,146.37,118Z"/><path class="icon-cls-1" d="M112.37,80a2,2,0,0,0-2,2v6a2,2,0,0,0,4,0V82A2,2,0,0,0,112.37,80Z"/><path class="icon-cls-1" d="M144.37,80a2,2,0,0,0-2,2v6a2,2,0,0,0,4,0V82A2,2,0,0,0,144.37,80Z"/><path class="icon-cls-3" d="M144.37,82v4c0,6-2.78,11.55-6,18-2,4-10,4-10,4s-8,0-10-4c-3.22-6.45-6-12-6-18V82h0c4,0,6-10,6-10s4,6,10,6h10C142.37,78,144.37,82,144.37,82Z"/><rect class="icon-cls-4" x="126.37" y="130" width="4" height="4"/><path class="icon-cls-5" d="M112.37,76v6h0c4,0,6-10,6-10s4,6,10,6h10c4,0,6,4,6,4V76c0-8-6-14-16-14a8.76,8.76,0,0,0-6,2S112.37,64,112.37,76Z"/><polygon class="icon-cls-3" points="136.37 124 128.37 118 120.37 124 112.37 116 118.37 110 128.37 114 138.37 110 144.37 116 136.37 124"/><polygon class="icon-cls-4" points="136.56 126.64 128.37 120.5 120.19 126.64 110.96 117.41 113.79 114.59 120.56 121.36 128.37 115.5 136.19 121.36 142.96 114.59 145.79 117.41 136.56 126.64"/><polygon class="icon-cls-1" points="176.37 162 190.37 170 190.37 182 66.37 182 66.37 170 80.37 162 92.37 162 106.37 170 106.37 170 122.37 162 134.37 162 150.37 170 150.37 170 164.37 162 176.37 162"/><polygon class="icon-cls-4" points="150.44 172.27 133.48 163.79 135.27 160.21 150.31 167.73 163.38 160.26 165.37 163.74 150.44 172.27"/><polygon class="icon-cls-4" points="106.31 172.27 91.38 163.74 93.36 160.26 106.44 167.73 121.48 160.21 123.27 163.79 106.31 172.27"/><rect class="icon-cls-4" x="104.37" y="170" width="4" height="6"/><polygon class="icon-cls-4" points="68.37 182 64.37 182 64.37 168.84 79.38 160.26 81.36 163.74 68.37 171.16 68.37 182"/><polygon class="icon-cls-4" points="192.37 182 188.37 182 188.37 171.16 175.38 163.74 177.37 160.26 192.37 168.84 192.37 182"/><rect class="icon-cls-4" x="148.37" y="170" width="4" height="6"/><path class="icon-cls-6" d="M180.37,150c0-4-2-10-10-10s-10,6-10,10v2c0,6,4,12,10,12s10-6,10-12Z"/><path class="icon-cls-4" d="M170.37,166c-7.41,0-12-7.27-12-14v-2c0-5.54,3.14-12,12-12s12,6.46,12,12v2C182.37,158.73,177.78,166,170.37,166Zm0-24c-7.22,0-8,5.59-8,8v2c0,4.81,3.06,10,8,10s8-5.19,8-10v-2C178.37,147.59,177.59,142,170.37,142Z"/><path class="icon-cls-6" d="M138.37,150c0-4-2-10-10-10s-10,6-10,10v2c0,6,4,12,10,12s10-6,10-12Z"/><path class="icon-cls-4" d="M128.37,166c-7.41,0-12-7.27-12-14v-2c0-5.54,3.14-12,12-12s12,6.46,12,12v2C140.37,158.73,135.78,166,128.37,166Zm0-24c-7.22,0-8,5.59-8,8v2c0,4.81,3.06,10,8,10s8-5.19,8-10v-2C136.37,147.59,135.59,142,128.37,142Z"/><path class="icon-cls-6" d="M96.37,150c0-4-2-10-10-10s-10,6-10,10v2c0,6,4,12,10,12s10-6,10-12Z"/><path class="icon-cls-4" d="M86.37,166c-7.41,0-12-7.27-12-14v-2c0-5.54,3.14-12,12-12s12,6.46,12,12v2C98.37,158.73,93.78,166,86.37,166Zm0-24c-7.22,0-8,5.59-8,8v2c0,4.81,3.06,10,8,10s8-5.19,8-10v-2C94.37,147.59,93.59,142,86.37,142Z"/></g></svg>