<svg xmlns="http://www.w3.org/2000/svg" viewBox="0 0 640.81 748.43" class="icon icon-cup"><defs><style>.icon-cup-cls-1{fill:#ed4a4a;}.icon-cup-cls-2{fill:#2b2b2b;}</style></defs><title>cup_img</title><g id="icon"><path class="icon-cup-cls-1" d="M380.7,826.94H586.52v30.41H380.7ZM439,564.24a104.67,104.67,0,0,0,25.91,12v1.31c2.71,1,5.8,2.15,9.36,3.27,3.18,1,6.83,2.06,10.76,3a134.92,134.92,0,0,0,26.66,3.27c3.09.09,6.27.09,9.36,0V576.21c1.12-.37-1.87-1.12-9.17-1.4q-3.93-.28-9.54-.28c3.09-1.87,6.27-3.93,9.36-6.17,52-36.67,102.91-119.75,102.91-229.39,0-5.8-.19-20.86-.47-26.57H343.75c-.09,1.87-.19,13-.28,14.88-.09,3.83-.19,7.76-.19,11.69q0,11.08.56,21.89C349.08,454,387,531.78,439,564.24Zm72.88,175.88a9.53,9.53,0,0,1,6.55,2.71l26.66,26.66L562.57,787l17.31,17.31a9.37,9.37,0,0,0-.47-13l-5.61-5.61-17.21-17-15.16-15.06L534.69,747A46.46,46.46,0,0,1,521,714.11v-40a119.09,119.09,0,0,1-9.36-25.45,124.71,124.71,0,0,1-2.62-14.22,9.19,9.19,0,0,0-5.89-7.67c-8-3.09-15.91-6.55-23.67-10.29-1.78-.84-3.37-1.68-4.86-2.34-.09-.09-.28-.09-.37-.19-3.83-1.87-6.92-3.46-9.36-4.87v92.62a13.67,13.67,0,0,1-.19,16.84,47.14,47.14,0,0,1-10.48,25.17,14.72,14.72,0,0,1,6.36,12.16,13,13,0,0,1-1.22,5.71,14.34,14.34,0,0,1-1.59,2.9c0,.09-.09.09-.09.19a6.6,6.6,0,0,1-1.31,1.5,9.08,9.08,0,0,1-1.69,1.59,12.39,12.39,0,0,1-3.27,1.87,6.88,6.88,0,0,1-2.34.75c-.28.09-.66.19-1,.28a19.72,19.72,0,0,1-2.43.19H427.2l-17.31,17.12-3.37,3.37a9.58,9.58,0,0,0,6.74,16.37H464.9l16.93.56h20.49l18.71-.56h35.83L505.23,756a9.31,9.31,0,0,1,0-13.19A9.42,9.42,0,0,1,511.87,740.12Z" transform="translate(-179.59 -115.93)"/><path class="icon-cup-cls-2" d="M412.86,457.54C398,423,390.08,382,390.08,339a21.91,21.91,0,0,1,.2-2.29c.24-2.18.65-6,1.33-14.17a9.35,9.35,0,0,0-8.53-10.11A9.5,9.5,0,0,0,373,321c-.67,7.89-1.07,11.63-1.3,13.75a35.34,35.34,0,0,0-.31,4.29c0,45.55,8.41,89.1,24.32,126a9.35,9.35,0,1,0,17.18-7.42Z" transform="translate(-179.59 -115.93)"/><path class="icon-cup-cls-2" d="M417.41,474.94a9.79,9.79,0,1,0,9.78,9.79A9.8,9.8,0,0,0,417.41,474.94Z" transform="translate(-179.59 -115.93)"/><circle class="icon-cup-cls-2" cx="453.81" cy="139.59" r="9.78"/><path class="icon-cup-cls-2" d="M689.9,771.09h-2.34l-50.9-.28H623.95l-.28-140.14L623.57,602l19,.28a6.51,6.51,0,0,0,2.34-.47,9.29,9.29,0,0,0,7.11-8.79c.09-5.15-4.12-9-9.26-9l-28.53-.37a9,9,0,0,0-6.64,2.71,9.57,9.57,0,0,0-2.81,6.74V595c-7.3-3.46-17-7.86-30.12-12.82-8.14-3-16.56-6-25-8.8,24-14.31,44.9-37.56,61.55-66.85,6.41,7,16.56,13.44,29,13.44a36.11,36.11,0,0,0,4.34-.26c14.83-1.6,27.64-12.19,32.65-27a9.36,9.36,0,1,0-17.72-6c-2.68,7.91-9.33,13.55-17,14.38-9.22,1.1-16.4-5.36-19.1-9.31a18.68,18.68,0,0,1-2.12-4.61,303.64,303.64,0,0,0,14.34-36.94c10.07-7.51,24.11-11.59,39-15.85,24.12-6.89,51.45-14.71,64.29-40.51,12.63-25.48,7-60.21-12.59-77.41-18.23-16.09-47.67-17.59-75.3-5.05-.47-6.5-1-11.17-1.8-17.77a9.31,9.31,0,0,0-9.26-8.23H346.09a9.31,9.31,0,0,0-9.26,8.23c-.66,5.4-1,8.85-1.47,14.19-25-8.6-50-5.68-66.26,8.63-19.58,17.2-25.22,51.93-12.58,77.44,12.88,25.77,40.26,33.59,64.42,40.5,10,2.84,19.34,5.59,27.61,9.3a303.23,303.23,0,0,0,20.15,51.81c-3.62,3.28-9.15,6.36-15.89,5.59-7.61-.82-14.26-6.47-16.94-14.38a9.36,9.36,0,1,0-17.72,6c5,14.78,17.82,25.37,32.54,27a37.13,37.13,0,0,0,4.39.26,38.27,38.27,0,0,0,22.83-7.85c15.83,26.23,35.25,47.18,57.24,60.61a49.54,49.54,0,0,0-1,5.8,41.69,41.69,0,0,0-.21,5.15H407a32.78,32.78,0,0,0-32.74,32.74,32.31,32.31,0,0,0,6.08,18.9,32.4,32.4,0,0,0-4.86,52.11A32.15,32.15,0,0,0,366.3,710a32.61,32.61,0,0,0,23.48,31.34,34.32,34.32,0,0,0-3.27,14.5,33.53,33.53,0,0,0,14.59,27.69L400,784.65c-3.69,3.57-5.45,9.33-5.46,14.26H380.7a9.35,9.35,0,0,0-9.36,9.36V855a9.35,9.35,0,0,0,9.36,9.36H605.23a9.35,9.35,0,0,0,9.36-9.36V808.27a9.35,9.35,0,0,0-9.36-9.36H591.62c0-4.84-1.88-10.59-5.66-14.26l-.79-.78c6.15-1.07,14-2.64,20.06-4.08l2.15-.56v.66a9.3,9.3,0,0,0,9.36,9.26l73.07.37h.09a9.44,9.44,0,0,0,9.36-9.36A9.15,9.15,0,0,0,689.9,771.09Zm23.94-440.54c13.39,11.77,17.14,37,8.19,55-9.15,18.4-30.3,24.44-52.67,30.84a249.46,249.46,0,0,0-27.22,9.06A381.63,381.63,0,0,0,652,339c0-2.26-.17-4.63-.21-6.91C674.47,319.18,699.93,318.28,713.85,330.55ZM326.08,416.44C303.64,410,282.45,404,273.26,385.6c-9-18.07-5.21-43.28,8.19-55.05,12-10.53,32.65-11.5,52.82-3-.11,3.82-.35,7.72-.35,11.46a383.18,383.18,0,0,0,8.95,82.54C337.32,419.66,331.65,418,326.08,416.44ZM352.64,339c0-5.28.18-10.62.43-16a9,9,0,0,0,.09-1.66c.15-3,.29-5.9.5-8.91q.28-5.05.84-10.1H631.43c1.22,12.54,1.87,24.79,1.87,36.68,0,111.89-48.37,207.88-115,228.27a7.92,7.92,0,0,0-2.53,1.22c-1.4,0-2.81,0-4.12-.09a118.89,118.89,0,0,1-22.45-2.9,138.85,138.85,0,0,1-19.27-5.9c-8.23-3.09-16.09-6-23.76-1.87C390.9,525.32,352.64,438.41,352.64,339ZM407,602.41h30.15a44.76,44.76,0,0,0,9.24,16,37.25,37.25,0,0,0,9.17,6.92c1.26.72,2.65,1.47,4.14,2.25a13.86,13.86,0,0,1-8.44,2.89H407a14,14,0,0,1,0-28.07Zm-9.73,46.78H451.9a14,14,0,0,1,0,28.07H397.26a14,14,0,0,1,0-28.07ZM385,710a14,14,0,0,1,14-14h54.64a13.91,13.91,0,0,1,11.23,5.71,13.67,13.67,0,0,1-.19,16.84,13.49,13.49,0,0,1-8.7,5.24,9.41,9.41,0,0,1-2.34.28H399A14,14,0,0,1,385,710Zm35.18,60.81a15,15,0,0,1-15-15,14.8,14.8,0,0,1,8-13.1h39.57a8.1,8.1,0,0,1,1.5.94,14.72,14.72,0,0,1,6.36,12.16,13,13,0,0,1-1.22,5.71,16.24,16.24,0,0,1-1.68,3.09,10.15,10.15,0,0,1-1.31,1.5,12.53,12.53,0,0,1-5,3.46,6.88,6.88,0,0,1-2.34.75c-.28.09-.66.19-1,.28a19.72,19.72,0,0,1-2.43.19Zm175.7,74.84H390.06V817.58H595.88ZM430.16,798.91l-17.08,0,8.51-9.36h24A34,34,0,0,0,478,765.19a33.73,33.73,0,0,0,1.31-9.36,32.32,32.32,0,0,0-6.36-19.46,32.53,32.53,0,0,0,2.62-50.61,32.56,32.56,0,0,0-1.12-46.22,32.79,32.79,0,0,0,2.85-3.53c4.64,2.12,9.3,4.23,14,6.15,1.78,10.94,6.27,29.94,17.4,48,.94,1.5,2,3,3,4.49v19.46a55.19,55.19,0,0,0,16.47,39.48l44.39,45.32Zm169.18-37a302.15,302.15,0,0,1-30.92,5.31l-27.09-26.92a36.59,36.59,0,0,1-10.94-26.2V712.8a107.82,107.82,0,0,0,18.15,10.1,9.49,9.49,0,0,0,3.84.84,9.39,9.39,0,0,0,3.74-18c-10.94-4.77-19.37-10.67-25.73-17.68a57,57,0,0,1-5.8-7.67c-1.31-2.06-2.43-4.21-3.56-6.36a119.09,119.09,0,0,1-9.36-25.45,124.71,124.71,0,0,1-2.62-14.22,9.19,9.19,0,0,0-5.89-7.67c-8-3.09-15.91-6.55-23.67-10.29-1.78-.84-3.37-1.68-4.86-2.34-.09-.09-.28-.09-.37-.19-3.83-1.87-6.92-3.46-9.36-4.87a25.87,25.87,0,0,1-3.49-2.24,13.82,13.82,0,0,0-1.59-1.41,24.47,24.47,0,0,1-4.27-6.82,28.25,28.25,0,0,1-1.78-5.43,33.56,33.56,0,0,1-1.22-11.51c0-.37.09-.66.09-.94a18.63,18.63,0,0,1,1.87-6.36c1.4.09,5.52,1.5,9,2.71a8.23,8.23,0,0,0,1.4.47c2.71,1,5.8,2.15,9.36,3.27,3.18,1,6.83,2.06,10.76,3a134.92,134.92,0,0,0,26.66,3.27c3.09.09,6.27.09,9.36,0q4.21-.14,8.42-.56l.94.28c12.82,4,25.45,8.42,37.61,13,19.18,7.11,30.59,12.16,37.23,15.72V760.33C603.18,760.89,601.4,761.45,599.34,761.92Z" transform="translate(-179.59 -115.93)"/><circle class="icon-cup-cls-2" cx="662.54" cy="750.37" r="14.4" transform="translate(-356.26 88.78) rotate(-15.52)"/><path class="icon-cup-cls-2" d="M355.43,265.62H605.23a9.36,9.36,0,0,0,0-18.71H355.43a9.36,9.36,0,1,0,0,18.71Z" transform="translate(-179.59 -115.93)"/><path class="icon-cup-cls-2" d="M755.11,574.64l-30.91-14a9.36,9.36,0,0,0-7.71,17l30.91,14a9.36,9.36,0,0,0,7.71-17Z" transform="translate(-179.59 -115.93)"/><path class="icon-cup-cls-2" d="M684.77,217.94a9.36,9.36,0,0,0,7.23-3.4l21.59-26.16a9.36,9.36,0,0,0-14.44-11.91l-21.59,26.16a9.35,9.35,0,0,0,7.21,15.31Z" transform="translate(-179.59 -115.93)"/><path class="icon-cup-cls-2" d="M810.39,372.48l-33.83,2.43a9.36,9.36,0,0,0,.66,18.69l.68,0,33.83-2.43a9.35,9.35,0,0,0,8.66-10A9.45,9.45,0,0,0,810.39,372.48Z" transform="translate(-179.59 -115.93)"/><path class="icon-cup-cls-2" d="M490.32,171.17a9.35,9.35,0,0,0,9.36-9.36V125.28a9.36,9.36,0,1,0-18.71,0v36.53A9.35,9.35,0,0,0,490.32,171.17Z" transform="translate(-179.59 -115.93)"/><path class="icon-cup-cls-2" d="M275.79,560.68l-30.91,14a9.36,9.36,0,1,0,7.71,17l30.91-14a9.36,9.36,0,0,0-7.71-17Z" transform="translate(-179.59 -115.93)"/><path class="icon-cup-cls-2" d="M308,214.54a9.36,9.36,0,1,0,14.44-11.91l-21.59-26.16a9.36,9.36,0,1,0-14.44,11.91Z" transform="translate(-179.59 -115.93)"/><path class="icon-cup-cls-2" d="M223.44,374.91l-33.82-2.43a9.5,9.5,0,0,0-10,8.66,9.35,9.35,0,0,0,8.66,10l33.82,2.43.68,0a9.36,9.36,0,0,0,.66-18.69Z" transform="translate(-179.59 -115.93)"/></g></svg>