<svg xmlns="http://www.w3.org/2000/svg" viewBox="0 0 256.37 256.37" class="icon icon-diamond"><defs><style>.icon-diamond-cls-1{fill:#fff;}.icon-diamond-cls-2{fill:#b4f0e0;}.icon-diamond-cls-3{fill:#2d2d2e;}</style></defs><title>ic</title><g id="Layer_4" data-name="Layer 4"><polygon class="icon-diamond-cls-1" points="172 76 84 76 66 106 128 192 190 106 172 76"/><polygon class="icon-diamond-cls-1" points="172 76 84 76 66 106 128 192 190 106 172 76"/><polygon class="icon-diamond-cls-2" points="182 106 74 106 88 82 168 82 182 106"/><polygon class="icon-diamond-cls-2" points="182 106 74 106 128 182 182 106"/><path class="icon-diamond-cls-3" d="M128,194a2,2,0,0,1-1.62-.83l-62-86a2,2,0,0,1-.09-2.2l18-30A2,2,0,0,1,84,74h56v4H85.13L68.39,105.9,128,188.58l28.66-39.75,3.24,2.34-30.28,42A2,2,0,0,1,128,194Z"/><path class="icon-diamond-cls-3" d="M171.44,135.17l-3.24-2.34,19.41-26.93L170.87,78H160V74h12a2,2,0,0,1,1.71,1l18,30a2,2,0,0,1-.09,2.2Z"/><rect class="icon-diamond-cls-3" x="138" y="104" width="52" height="4"/><rect class="icon-diamond-cls-3" x="66" y="104" width="52" height="4"/><rect class="icon-diamond-cls-3" x="142.4" y="89" width="37.2" height="4" transform="translate(-7.58 167.05) rotate(-53.76)"/><rect class="icon-diamond-cls-3" x="137" y="72.4" width="4" height="37.2" transform="translate(-26.9 99.82) rotate(-36.25)"/><rect class="icon-diamond-cls-3" x="98.4" y="89" width="37.2" height="4" transform="translate(-25.56 131.56) rotate(-53.76)"/><rect class="icon-diamond-cls-3" x="93" y="72.4" width="4" height="37.2" transform="translate(-35.42 73.8) rotate(-36.25)"/><rect class="icon-diamond-cls-3" x="115" y="104.62" width="4" height="88.77" transform="translate(-33.28 33.64) rotate(-14.35)"/><rect class="icon-diamond-cls-3" x="94.62" y="147" width="88.77" height="4" transform="translate(-39.82 246.7) rotate(-75.64)"/><rect class="icon-diamond-cls-3" x="148" y="70" width="4" height="12"/><rect class="icon-diamond-cls-3" x="144" y="74" width="12" height="4"/><rect class="icon-diamond-cls-3" x="126" y="100" width="4" height="12"/><rect class="icon-diamond-cls-3" x="122" y="104" width="12" height="4"/><rect class="icon-diamond-cls-3" x="92" y="160" width="4" height="12"/><rect class="icon-diamond-cls-3" x="88" y="164" width="12" height="4"/><rect class="icon-diamond-cls-3" x="164" y="138" width="4" height="12"/><rect class="icon-diamond-cls-3" x="160" y="142" width="12" height="4"/></g></svg>