<svg xmlns="http://www.w3.org/2000/svg" viewBox="0 0 256.37 256.37" class="icon icon-doc"><defs><style>.icon-doc-cls-1{fill:#fff;}.icon-doc-cls-2{fill:#a8a7a5;}.icon-doc-cls-3{fill:#2d2d2e;}.icon-doc-cls-4{fill:#ff7552;}</style></defs><title>ic</title><g id="Layer_4" data-name="Layer 4"><polygon class="icon-doc-cls-1" points="180.37 188 92.37 188 92.37 64 168.37 64 180.37 76 180.37 188"/><polygon class="icon-doc-cls-2" points="174.37 124 98.37 124 98.37 70 162.37 70 162.37 82 174.37 82 174.37 124"/><path class="icon-doc-cls-3" d="M182.37,190h-92V62H169.2l13.17,13.17Zm-88-4h84V76.83L167.54,66H94.37Z"/><polygon class="icon-doc-cls-3" points="180.37 78 166.37 78 166.37 64 170.37 64 170.37 74 180.37 74 180.37 78"/><rect class="icon-doc-cls-4" x="98.37" y="128" width="76" height="54"/><rect class="icon-doc-cls-3" x="106.37" y="152" width="4" height="22"/><rect class="icon-doc-cls-3" x="114.37" y="140" width="4" height="34"/><rect class="icon-doc-cls-3" x="122.37" y="144" width="4" height="30"/><rect class="icon-doc-cls-3" x="130.37" y="148" width="4" height="26"/><rect class="icon-doc-cls-3" x="138.37" y="136" width="4" height="38"/><rect class="icon-doc-cls-3" x="146.37" y="144" width="4" height="30"/><rect class="icon-doc-cls-3" x="154.37" y="148" width="4" height="26"/><rect class="icon-doc-cls-3" x="162.37" y="140" width="4" height="34"/><rect class="icon-doc-cls-3" x="106.37" y="78" width="4" height="4"/><rect class="icon-doc-cls-3" x="114.37" y="78" width="4" height="4"/><rect class="icon-doc-cls-3" x="122.37" y="78" width="4" height="4"/><rect class="icon-doc-cls-3" x="106.37" y="90" width="60" height="4"/><rect class="icon-doc-cls-3" x="106.37" y="98" width="60" height="4"/><rect class="icon-doc-cls-3" x="106.37" y="106" width="60" height="4"/><rect class="icon-doc-cls-1" x="76.37" y="64" width="8" height="8"/><polygon class="icon-doc-cls-2" points="76.37 72 84.37 72 84.37 180 80.37 188 76.37 180 76.37 72"/><rect class="icon-doc-cls-1" x="76.37" y="154" width="8" height="16"/><path class="icon-doc-cls-3" d="M80.37,190a2,2,0,0,1-1.79-1.11l-4-8a2,2,0,0,1-.21-.89V64a2,2,0,0,1,2-2h8a2,2,0,0,1,2,2V180a2,2,0,0,1-.21.89l-4,8A2,2,0,0,1,80.37,190Zm-2-10.47,2,4,2-4V66h-4Z"/><rect class="icon-doc-cls-3" x="76.37" y="168" width="8" height="4"/><rect class="icon-doc-cls-3" x="76.37" y="160" width="8" height="4"/><rect class="icon-doc-cls-3" x="76.37" y="152" width="8" height="4"/><rect class="icon-doc-cls-3" x="76.37" y="70" width="8" height="4"/></g></svg>