<svg id="Layer_1" data-name="Layer 1" xmlns="http://www.w3.org/2000/svg" xmlns:xlink="http://www.w3.org/1999/xlink" viewBox="0 0 382.59 382.59" class="icon icon-money-hands"><defs><style>.cls-icon-money-hands-1{fill:#fff;}.cls-icon-money-hands-10,.cls-icon-money-hands-11,.cls-icon-money-hands-12,.cls-icon-money-hands-13,.cls-icon-money-hands-14,.cls-icon-money-hands-15,.cls-icon-money-hands-16,.cls-icon-money-hands-17,.cls-icon-money-hands-2,.cls-icon-money-hands-22,.cls-icon-money-hands-23,.cls-icon-money-hands-3,.cls-icon-money-hands-4,.cls-icon-money-hands-5,.cls-icon-money-hands-6,.cls-icon-money-hands-7,.cls-icon-money-hands-8,.cls-icon-money-hands-9{fill-rule:evenodd;}.cls-icon-money-hands-3{fill:#d17841;}.cls-icon-money-hands-4{fill:#f0a15f;}.cls-icon-money-hands-5{fill:#d7844f;}.cls-icon-money-hands-6{fill:#d57e45;}.cls-icon-money-hands-7{fill:#ec9c5b;}.cls-icon-money-hands-8{fill:#d77f46;}.cls-icon-money-hands-9{fill:#de894d;}.cls-icon-money-hands-10{fill:#d47c44;}.cls-icon-money-hands-11{fill:#f2bd7c;}.cls-icon-money-hands-12{fill:#434a60;}.cls-icon-money-hands-13{fill:#e79354;}.cls-icon-money-hands-14{fill:#fdfcfc;}.cls-icon-money-hands-15{fill:#dd884c;}.cls-icon-money-hands-16{fill:#d27942;}.cls-icon-money-hands-17{fill:#f2ac6c;}.cls-icon-money-hands-18{mask:url(#mask);}.cls-icon-money-hands-19{fill:#f2c332;}.cls-icon-money-hands-20{mask:url(#mask-2);}.cls-icon-money-hands-21{fill:#ffde3e;}.cls-icon-money-hands-22{fill:#dfecf0;}.cls-icon-money-hands-23{fill:#9c9aa9;opacity:0.7;}</style><mask id="mask" x="134.26" y="89.94" width="154.72" height="148.75" maskUnits="userSpaceOnUse"><rect class="cls-icon-money-hands-1" x="134.26" y="89.94" width="154.72" height="148.75"/><path class="cls-icon-money-hands-2" d="M188.38,168.86c2.34,1.49,8.47,2.68,10.63,2.34s10.47-3.12,8.32-11.56a13.21,13.21,0,0,0-9.34-9.93Z"/></mask><mask id="mask-2" x="132.17" y="88.9" width="154.72" height="148.75" maskUnits="userSpaceOnUse"><rect class="cls-icon-money-hands-1" x="132.17" y="88.9" width="154.72" height="148.75"/><path class="cls-icon-money-hands-2" d="M186.3,167.82c2.34,1.49,8.47,2.68,10.63,2.34s10.47-3.12,8.32-11.56a13.21,13.21,0,0,0-9.34-9.93Z"/></mask></defs><title>money_hands</title><g id="r3zjq8"><path class="cls-icon-money-hands-3" d="M206.54,196.06c10,1.88,20.15,1.84,30.26,2.17a89.33,89.33,0,0,0,10.82-.78c10.18-.92,21.13-1.42,31,1.87a72.17,72.17,0,0,1,18.6,9.74c0,.46-.26.57-.69.52a2.67,2.67,0,0,1-1-.39c-9.83-5.51-20.6-8.39-32-9.55a86.27,86.27,0,0,0-17,0,42.43,42.43,0,0,1-4.39.26c-4.12,0-8.22.52-12.37.14-3.36-.31-6.77-.41-10.15-.52a76.08,76.08,0,0,1-10.22-1.27,25.12,25.12,0,0,0-10.73.13c-2.2.58-4.51.75-6.75,1.23a48.88,48.88,0,0,0-6.17,1.47,27.78,27.78,0,0,0-5.64,2.54c-3.25,2.12-3.86,5.44-1.45,8.09a7.42,7.42,0,0,0,5.07,2.21c1.78.14,3.57,0,5.36,0,1,0,1.44-.37,1.17-1.3a11.29,11.29,0,0,1-.28-3.21c.1-.52-.19-1.18.63-1.44.55.21.63.68.74,1.12a18.54,18.54,0,0,0,1.67,4.45c.5.91.28,1.45-.71,2a7.28,7.28,0,0,1-4.61.84c-.39,0-.23.22-.27.06s0-.07.12-.06c3.18.26,6.38.24,9.56.42a39,39,0,0,0,6.82-.54,10.51,10.51,0,0,1,1.5-.14,7.6,7.6,0,0,1,2.73.58c2.39,1,5,1.06,7.51,1.38,3.31.42,6.63.75,10,1.12,2.68.3,5,1.61,7.4,2.58a.72.72,0,0,1,.41.48c-.37.72-1.12.44-1.72.55a31.52,31.52,0,0,1-6.26-.58c-2.89-.35-5.78-.69-8.69-.91a20,20,0,0,1-2.86-.24,4.5,4.5,0,0,0-4.18.83,1.68,1.68,0,0,1-.38.21,12.15,12.15,0,0,0-1.69.36c-2.87.57-5.82.91-8.49,2.05-5.31,2.26-11.13,2.4-16.72,3.46-4.53.86-9.17,1.31-13.55,2.78A35.73,35.73,0,0,0,162,234.3c-.23.14-.44.3-.68.43s-.5.3-.76.14a.45.45,0,0,1-.1-.67c1.24-1.56-.13-2.18-1.18-3.05A22,22,0,0,0,147,225.91c-1.64-.16-3.32-.44-4.54,1-.33.39-.95.46-1-.17-.1-2.12-1.91-3.15-3.34-4.37a24.58,24.58,0,0,0-8.33-4.76,8,8,0,0,0-6.14.18,4.61,4.61,0,0,0-1.58,1.18c-.79.93-.74,1.24.23,2.08,2.05,1.79,4.44,3.22,6.49,5,2.57,2.24,5.2,4.44,7.67,6.77a14.53,14.53,0,0,0,6.57,3.46c4,1,7.91,2.16,11.75,3.56,3.07,1.11,5.75,3,9,3.78a19.33,19.33,0,0,0,3.9.67c7.51.36,15,.17,22.54.93a142.23,142.23,0,0,0,16.77.56,4,4,0,0,0,2.64-.85c1-.83,2.25-1.43,3.36-2.16s1.92-.52,2.45.57c1.44,3,4.07,3.93,7.43,3.94,6.34,0,12.67-.2,19-.33,6.64-.14,13.27-.67,19.89-1.34,4.46-.45,9-.55,13.43-1a21.77,21.77,0,0,1,5.85.68c1.4.24,3.42-1.07,3.62-2.36.11-.71-.79-1-.87-1.63a.51.51,0,0,1,.27-.5c.61-.21,1,.15,1.52.38,7.6,3.62,14.23,8.46,20.78,13.42a156.18,156.18,0,0,0,15.88,10.48c2.89,1.68,5.81,3.33,8.62,5.12,1.19.76,1.35.74,1.9-.44,3.53-7.6,7.86-14.89,11.2-22.56a6.18,6.18,0,0,1,2.62-3.38c.24.06.36.17.24.4-7.51,14.44-13.25,29.6-21.51,43.75-.48.82-.65,1.35-1.72.38-6.24-5.69-12.53-11.33-18.58-17.18-2.7-2.61-5.49-5.13-8.3-7.64a25.91,25.91,0,0,0-8.72-5,17.65,17.65,0,0,0-9.35-.79c-6.26,1.1-12.53,2.16-18.84,2.95-5.95.74-12,1.06-17.89,1.93-5.16.75-10.34,1.32-15.54,1.84a123.87,123.87,0,0,1-12.78.62,9.92,9.92,0,0,1-4.89-1.52c-4.37-2.52-8.68-5.13-13.13-7.53-2.24-1.21-4.47-2.44-6.72-3.65a20.59,20.59,0,0,0-9.62-2.18c-3.48-.06-7,.08-10.45-.23a19.94,19.94,0,0,1-8.67-2.61A81.2,81.2,0,0,0,144,240.27a29,29,0,0,1-11.17-6.67c-4.15-4-8.71-7.61-13.13-11.36-.54-.46-.79-1.08-1.34-1.5v-1c1.24-3.71,3.62-5.21,8-5.33,4.69-.12,8.64,1.63,12.51,3.69a17.92,17.92,0,0,1,5.22,3.81,1.6,1.6,0,0,0,.87.54,2.75,2.75,0,0,0-.36-2.13,57,57,0,0,0-4.7-8.29c-.2-.28-.41-.55-.61-.83-1.9-2.63-1.38-4.3,1.77-5.65,4-1.73,8.15-.69,11.11,2.94a67.2,67.2,0,0,1,6.06,7.85,1.55,1.55,0,0,0,1.55.84c4.81-.3,8,2.13,10.83,5.21,1,1.15,2.15,2.27,3.14,3.46a1.84,1.84,0,0,0,2,.67c4.81-.92,9.62-1.81,14.46-2.54a10.09,10.09,0,0,0,2.74-.81,27.57,27.57,0,0,1,8.91-2.43h.42c-.3,0-.59,0-.89,0a42.87,42.87,0,0,1-4.3.06c-2-.44-4.11-.14-6.16-.44a69.3,69.3,0,0,1-9.47-2.12,9.89,9.89,0,0,1-6.86-10.79c.31-2.27,2-3.78,3.8-5.15a13.32,13.32,0,0,1,4.29-2.19A151.46,151.46,0,0,1,202.35,196a21.17,21.17,0,0,1,2.34-.06A7.52,7.52,0,0,1,206.54,196.06Z"/><path class="cls-icon-money-hands-4" d="M205.42,216.5c-2.26.23-4.52.6-6.79.64-2.78.06-5.56-.09-8.34-.29a7.11,7.11,0,0,1-3.52-.62H189c1.42,0,2.51-.77,3.73-1.27.43-.18.31-.47.15-.73a23.65,23.65,0,0,1-2.31-6.2,5.39,5.39,0,0,1-.55-3.22,9.75,9.75,0,0,1,.74-4.35,2.16,2.16,0,0,1,.91-1.14c3.57-.66,7.15-1.28,10.71-2,2.2-.44,4.23.31,6.34.5,3.76.35,7.44,1.16,11.25,1.33,4.74.21,9.49.68,14.23.62,5.57-.08,11.13-.45,16.68-.86a65.09,65.09,0,0,1,12.47.38c4.8.57,9.57.84,14.25,2a77.12,77.12,0,0,1,18.29,7.29c.4.22,1.41.73,1.32.49,1.84,1.07,3.67,2.1,4.78,4,.81,1.35,2.76,2.24,4.2,3.07,10,5.81,19.46,11.66,30.33,16.09,4.43,1.8,8.19,4.56,12.21,6.95.39.23.62.45.38.9s-.54,1.14-.8,1.7c-.93.49-.78,1.69-1.73,2.17-2.28,2.43-3,5.53-4.45,8.35-1.65,3.28-3.52,6.46-5.06,9.79-1.32,2.86-2.86,5.65-4.2,8.51-.39.83-.78.76-1.42.37-8.39-5.16-17.12-9.9-24.94-15.8a144.48,144.48,0,0,0-14-9.91c-2.65-1.55-5.35-3-8.17-4.3-.15,0-.29-.21-.44,0s.09.21.16.31c1.48,1.64,1.37,1.58.06,3.38a2.58,2.58,0,0,1-3.18,1.09c-4-1.15-8-.48-12.06-.05-1.81.19-3.65.09-5.48.29-3.71.4-7.44.68-11.17,1-1.5.13-3,.11-4.52.23-3,.23-5.95.33-8.92.27-5.28-.1-10.53.42-15.81.29a23,23,0,0,1-3.26-.37c-2.39-.39-3.6-2.05-4.49-3.86-.49-1-1.15-1-1.79-.46-1.16,1-2.67,1.45-3.75,2.49a2.67,2.67,0,0,1-2,.68c-3.31,0-6.62.11-9.92,0-4.1-.19-8.18-.65-12.27-.92-4.34-.29-8.7-.27-13.05-.32-4.11-.05-8.26-.2-12-2a58.47,58.47,0,0,0-7.65-3.33q-4.78-1.57-9.67-2.82a14.77,14.77,0,0,1-6.61-3.38,140.49,140.49,0,0,0-15-12.36c-.73-.51-.49-1-.17-1.49,1.21-2,4.27-3.14,6.9-2.56,5.06,1.1,8.89,3.92,12.43,7.2a3,3,0,0,1,1.15,3c1.95-2.77,4.66-1.58,7-1.26a20.3,20.3,0,0,1,10.55,5l.2.17c.7.53,1.71.95,2,1.62s-.9,1.25-1,2.23a45.69,45.69,0,0,1,4.3-2.64c3.37-2,7.22-2.77,11.08-3.47s7.63-1.26,11.45-1.85c1.62-.25,3.24-.5,4.87-.66a24.49,24.49,0,0,0,5.7-1.71,47.63,47.63,0,0,1,9.65-2.29c.51-.31,1.15.07,1.66-.24h0a3.22,3.22,0,0,1,1.69-.39,96.84,96.84,0,0,1,11.46.35c1,.09,1.9-.27,2.83,0a50.58,50.58,0,0,0,6.33.5,7.76,7.76,0,0,0,2.35.08c.18,0,0-.26,0-.09s0,.1-.08.1a.64.64,0,0,1-.65-.33c-2.56-.86-4.91-2.26-7.64-2.66s-5.25-.49-7.86-.86c-3.3-.47-6.73-.41-9.85-1.72C207.34,215.79,206.44,215.93,205.42,216.5Z"/><path class="cls-icon-money-hands-5" d="M346.56,243.9c.36-.65.71-1.31,1.08-1.95.13-.23.24-.61.65-.22a10,10,0,0,1-1.41,2.5Z"/><path class="cls-icon-money-hands-4" d="M190.27,209.54a9.88,9.88,0,0,0,.42,3.68c.17.53,0,.91-.52.92-3.54.07-7.17.77-10.45-1.1-3.91-2.24-4-7.07-.12-9.61a20.11,20.11,0,0,1,6-2.63.75.75,0,0,1,.93.08,4.83,4.83,0,0,0,1.63.08c1.55.1,2.26.64,2.09,2-.22,1.82.28,3.64-.09,5.45A1.3,1.3,0,0,0,190.27,209.54Z"/><path class="cls-icon-money-hands-3" d="M225.28,222c-5.33.64-10.65-.34-16,0,1.11-1.82,2.88-1.47,4.69-1.26,2.56.31,5.16.41,7.7.8C222.88,221.71,224.14,221.47,225.28,222Z"/><path class="cls-icon-money-hands-6" d="M190.35,211.16c-.56-1.1-.27-3.87-.34-5s0-2.14,0-3.21-.56-1.68-1.82-1.64c-.64,0-1.27,0-1.91,0a.13.13,0,0,1-.09-.06c0-.18.14-.15.24-.18,1.29-.88,3-.74,4.39-1.32.34-.14.52.23.31.57-.94,2.53-.7,5.13-.56,7.72C190,208.47,190.45,210.66,190.35,211.16Z"/><path class="cls-icon-money-hands-7" d="M191.11,200.31c-.05-.19-.12-.51-.39-.34-1.31.79-2.87.73-4.3,1.09-.2-.29-.53-.24-.83-.25a28.57,28.57,0,0,1,6.07-1.49Z"/><path class="cls-icon-money-hands-3" d="M205.42,216.5c.1-.08.19-.17.3-.24,1.55-1.06,1.55-1.06,2.2.75A7.37,7.37,0,0,0,205.42,216.5Z"/><path class="cls-icon-money-hands-8" d="M233.26,222.24l.83.33a3.87,3.87,0,0,1-2.48-.08C232.16,222.39,232.78,222.68,233.26,222.24Z"/><path class="cls-icon-money-hands-9" d="M284,241.16l-1-.77a1.17,1.17,0,0,1,1.28.51Z"/><path class="cls-icon-money-hands-10" d="M209.3,222c-.49.43-1.1.18-1.66.25C208.13,221.78,208.74,222.06,209.3,222Z"/><path class="cls-icon-money-hands-10" d="M215,203.91a26.87,26.87,0,0,1,.39,6.14c0,.3.18.76-.3.84s-.59-.32-.79-.6C213.31,208.93,213.66,205.18,215,203.91Z"/></g><path class="cls-icon-money-hands-11" d="M348.72,238.61c-4-2.39-7.78-5.14-12.21-6.95-10.87-4.43-20.34-10.27-30.33-16.09-1.44-.83-3.39-1.72-4.2-3.07-1.11-1.87-2.94-2.89-4.78-4h0a72.15,72.15,0,0,0-18.6-9.73c-9.84-3.29-20.8-2.79-31-1.87a89.25,89.25,0,0,1-10.82.78c-10.12-.33-20.28-.29-30.26-2.17a7.45,7.45,0,0,0-1.86-.1,20.71,20.71,0,0,0-2.34.06,151.55,151.55,0,0,0-19.69,4.11,13.32,13.32,0,0,0-4.29,2.19c-1.67,1.26-3.22,2.64-3.7,4.62l-.14.39c.64-3.13,6.66-3.19,13.27-4.45,1.95-.37,4-.82,6-1.26,3.94-.87,8.41-1.85,10.28-1.74s3.21.29,5.15.54c2.88.38,6.82.89,14.51,1.45s17.45.13,26-.26c5.74-.26,11.17-.51,15.12-.4,10.51.28,19.79,2.29,30.92,11.17,3.28,2.62,5.28,4.29,6.74,5.51,3.74,3.13,4,3.25,9.66,6.23l3.25,1.71L346.95,242Z"/><path class="cls-icon-money-hands-12" d="M337.19,308.88l31.46-65.68-31-12.58S306.79,294.6,307,296,337.19,308.88,337.19,308.88Z"/><g id="ZFSx2e"><path class="cls-icon-money-hands-3" d="M236.38,127.15a3.71,3.71,0,0,1,1.3,3.8c-.5,1.54-2.77,5.21-4.24,7.76-1.79,3.11-3.14,6.45-5.05,9.5s-4.09,6.35-6.33,9.38a26.81,26.81,0,0,1-4.78,4.77,7.85,7.85,0,0,1-4.08,1.27c-2.19.3-4.42.25-6.63.47a1.71,1.71,0,0,0-1.61,1.1c-1.45,3.33-5.82,5.15-7.64,5.29a29.46,29.46,0,0,1-8.15-1c-5.38-1.82-10.86-3.4-15.84-6.25a13.71,13.71,0,0,0-2.95-1.24c-4.74-1.4-9.36-3.21-14.28-4-1.6-.26-2.61-1.78-2.81-3.81-.07-.72.36-1.63-.21-2.1s-1.34-.28-2-.46c-5.22-1.34-10.66-1.69-15.77-3.53-3.41-1.23-7-1.91-10.41-3.08a47.37,47.37,0,0,1-13.2-7.55c-2.73-2.07-4.62-4.86-7-7.25a2.12,2.12,0,0,0-2.26-.68,70.82,70.82,0,0,0-11.77,3.88,149.72,149.72,0,0,0-17.64,9.54c-2.23,1.39,4.46-1.84,1.87-1.23-1.49.35-2.66-.65-2.31-2A2.23,2.23,0,0,1,74,137.91c5.82-3,2.41-1.94,8.29-4.81a103.29,103.29,0,0,1,17.36-7c.59-.16,1.11-.29.75-1.09a.6.6,0,0,1,.22-.69,2.4,2.4,0,0,1,3.44.19c1.36,1.56,2.75,3.09,4,4.73a29.32,29.32,0,0,0,9.6,7.89c1.37.74,2.74,1.46,4,2.3a19.65,19.65,0,0,0,5.11,2.09c-.31-.64-1-1-.94-1.72a.41.41,0,0,1,.36-.31,3.85,3.85,0,0,1,1.66,1.06,27,27,0,0,0,9.23,5,52.74,52.74,0,0,0,8.27,1.56,40.21,40.21,0,0,1,8,1.63,18.82,18.82,0,0,0,4.8.84,2.23,2.23,0,0,1,1.49.63,45.2,45.2,0,0,0,10.42,7.29c2.11,1.15,4.23,2.27,6.3,3.51,4.51,2.7,9.49,4.05,14.74,5.35a13.55,13.55,0,0,1-4.17-3.59,1.13,1.13,0,0,1,0-1.51c.55-.67.92-.68,1.47,0a34.11,34.11,0,0,0,4.74,4.5,5.23,5.23,0,0,0,8.16-2c.64-1.53,1-3,.29-4.59a3.77,3.77,0,0,0-1.77-1.89c-1.72-.87-3.15-2.2-4.84-3.12a1,1,0,0,0-1.17-.13c-.22.12-.4.31-.68.31a.45.45,0,0,1-.28-.37,4.33,4.33,0,0,1,.89-1.86,1,1,0,0,1,1.55-.25,19.12,19.12,0,0,1,2.18,1.49c.41.32.81.66,1.2,1,0,.06.09.07.14,0a.43.43,0,0,1-.17-.08c-.34-.25-.61-.58-.94-.84a39.45,39.45,0,0,0-4.45-3.1c-3.5-2.48-6.68-5.36-10-8-.78-.62-1.58-1.21-2.36-1.84-1-.79-1.15-.74-1.7.35-.4.79-.77,1.6-1.21,2.37-.31.53-.54,1.15-1.2,1.39a.41.41,0,0,1-.33-.32,5.7,5.7,0,0,1,.42-1.82,20.78,20.78,0,0,0,.36-3.62,2.93,2.93,0,0,0-1.79-3c-.69-.34-1.36-.75-2.05-1.08-2.88-1.39-4.85-3.77-6.85-6.14a32.4,32.4,0,0,1-2.2-2.48c-.2-.3-.51-.55-.49-1a.48.48,0,0,1,.53-.35,3.13,3.13,0,0,1,1.62,1.29c.49.58.78.52,1.3,0,3.45-3.49,6-7.68,9.07-11.49a73,73,0,0,0,5.22-7.59c.24-.39.4-1,1-.9s.62.65.65,1.07c.21,2.51,1.8,3.52,4,4.4a59.4,59.4,0,0,0,11.28,2.8,2.13,2.13,0,0,0,1.88-.73c1.6-1.41,2.45-3.32,3.45-5.12a17,17,0,0,0,1.67-3c.07-.22.22-.42.48-.37s.37.33.4.6a2.58,2.58,0,0,1-.25,1.18,28.54,28.54,0,0,0-1.62,6.33,3.86,3.86,0,0,0,.24,2.28c1.33,2.85,2.57,5.73,4.7,8.13a29.78,29.78,0,0,0,6.12,5.27c1.34.86,3,.7,4.53.85a47.3,47.3,0,0,0,5.76.25c.35,0,.87-.06.91.4s-.44.63-.84.73c-.65.16-1.33.06-2,.16a27.76,27.76,0,0,0-8.28,2.75c-2.05,1-2.92,3-3.87,4.84a13,13,0,0,0-.77,2.31c-.58,2-.51,3.91,1.11,5.55.85.86,1.55,1.88,2.41,2.75.32.33.8.77.39,1.22s-1,.19-1.4-.16a11.83,11.83,0,0,0-6-2.72,6.7,6.7,0,0,0-5.58,2.2,1.31,1.31,0,0,0,.07,2,15.21,15.21,0,0,1,3.95,6.71c.19.66.71.57,1.17.55a56.4,56.4,0,0,0,5.72-.72c1-.15,2-.27,3-.34a5.2,5.2,0,0,0,2.79-1.21c2.95-2.16,4.72-5.26,6.69-8.21,2.58-3.86,4.35-8.16,6.65-12.17a57.83,57.83,0,0,1,4-6.75c.54-.7.23-1.4-.15-2.07S235.55,126.88,236.38,127.15Z"/><path class="cls-icon-money-hands-4" d="M126.3,140.23c.29.82.79.87,1.38,1.82a22.65,22.65,0,0,1-5.56-2c-2.5-1.42-5-2.85-7.47-4.33-3.13-1.86-5.46-4.58-7.74-7.35-1.07-1.31-2.18-2.6-3.3-3.86a2.56,2.56,0,0,0-3,.1c-.23.28,0,.53.1.69.61.69.1.83-.44,1a103.52,103.52,0,0,0-14,5.26c-7.34,3.35-5.21,3.1-12.4,6.72-.66.33-.84,1-1.31,1.44-.34-.33-.71-.08-1.05,0-2.35.33-6.25-1.48-6.89-3.77-1.16-4.11-3.89-7.35-5.59-11.15s-3.57-7.47-5.46-11.16c-.9-1.75-.93-3.75-1.85-5.5-.68.25-1.58.89-2.12-.21s.45-1.5,1.13-2c2-1.35,3.46-3.22,5.37-4.63a69.48,69.48,0,0,1,17.2-8.87c4.8-1.79.32.34,4.83-2A53.46,53.46,0,0,1,87.57,87c9.35-2.9,18.79-5.45,28.28-7.83A6.44,6.44,0,0,1,117.5,79c5.73,0,11.46-.06,17.19.31,7.34.47,14.68.87,22,1.34q9.4.61,18.79,1.32c3.5.26,7,.71,10.45,1.2a53.49,53.49,0,0,0,7.87.13,26.29,26.29,0,0,1,6.57.84,1.63,1.63,0,0,1,.9.4c2.07,2.33,4.77,4,6.72,6.44,4.7,5.79,9.3,11.68,13.88,17.57,4.83,6.22,9.56,12.52,14.49,18.65-.22.09-.8-.16-.36.51.86,1.31.69,1.52-.18,2.87-1.28,2-2.41,4.06-3.55,6.13-2.67,4.81-4.92,9.84-8.05,14.39a27,27,0,0,1-6.21,6.83,5,5,0,0,1-2.73.69c-2.85.29-5.65.94-8.53,1-.68,0-.93-.11-1.13-.9a11.83,11.83,0,0,0-3.42-6c-1.32-1.2-1.25-2.5.19-3.53,3.28-2.34,5.69-2.16,9.56-.07a10.16,10.16,0,0,1,1.69,1.24,1.22,1.22,0,0,0,1.31.25,12.91,12.91,0,0,0-2.6-3c-2.14-2.17-2.39-4.52-1.42-7.28a18.24,18.24,0,0,1,2.53-4.89c1.08-1.45,2.77-2.05,4.37-2.69a19.92,19.92,0,0,1,7.81-1.8,1.14,1.14,0,0,0,1-.59c-.46,0-.83-.06-1.21-.05a54.27,54.27,0,0,1-8.91-.65c-1.49-.24-2.45-1.34-3.52-2.18a23.49,23.49,0,0,1-7.19-8.84c-.49-1.08-1-2.14-1.49-3.21-.56-1.24.84-7.07,1.52-8.68.18-.43.47-.92,0-1.47a63.71,63.71,0,0,1-5.6,8.83c-.87,1-2,.56-3,.4a47.89,47.89,0,0,1-12-3.37,3.22,3.22,0,0,1-2.1-2.74,18.47,18.47,0,0,0-.65-2.44c-.88,1.38-1.59,2.57-2.36,3.72-3.44,5.06-7.22,9.87-10.95,14.72-.67.87-1.6,1.53-2.24,2.46-.28.4-.57.34-.86-.07a7.3,7.3,0,0,0-1.78-1.8c-.23-.08-.56-.36-.46.23,1.92,2.46,4.11,4.71,6.19,7,1.09,1.21,2.8,1.85,4.24,2.73a10.89,10.89,0,0,0,1.18.6,3.14,3.14,0,0,1,2,3.23,17.07,17.07,0,0,1-.93,5.51,3,3,0,0,1-.57,1.18,3.93,3.93,0,0,1-.57.75c0-.17.41-.34.54-.67.29-.33.4-.81.82-1a25.61,25.61,0,0,0,2.26-4.06c.6-1.17.63-1.22,1.72-.39,1.72,1.32,3.4,2.69,5.08,4.07a95.78,95.78,0,0,0,11,8.29,2.92,2.92,0,0,1,1,1c0,.38-.18.39-.45.23-.76-.51-1.53-1-2.29-1.52-.57-.39-1-.36-1.33.31s-.55,1.1-.83,1.66a3.53,3.53,0,0,1-1,1.6c0,.12-.19.19-.14.34a.62.62,0,0,1,.13-.28,13.37,13.37,0,0,1,1.24-1.44l.45-.44a1.71,1.71,0,0,1,1.33,0c1.94,1,3.56,2.45,5.49,3.48a3.89,3.89,0,0,1,1.8,3.94c-.23,2.27-1.1,4.38-3.32,5.42a5.56,5.56,0,0,1-6.23-.84c-1.47-1.23-2.82-2.61-4.2-3.94a7.5,7.5,0,0,1-.77-1.05c-1,.54-1.15,1.08-.37,2.07,1.19,1.53,2.9,2.36,4.48,3.69a33.46,33.46,0,0,1-6.48-1.51A48.79,48.79,0,0,1,174.09,160c-3.35-2-6.91-3.66-10.11-5.91a33.23,33.23,0,0,1-3.4-2.64,4.82,4.82,0,0,0-3.28-1.68c-2.27-.08-4.44-.94-6.65-1.5a56.59,56.59,0,0,0-7.71-1.24,29.47,29.47,0,0,1-16.62-7.1C125.79,139.74,126.14,139.76,126.3,140.23Z"/><path class="cls-icon-money-hands-13" d="M198.47,140a12.1,12.1,0,0,1,5.54,1.28,2.1,2.1,0,0,0,1.16.3c.41,0,.82-.18.84-.56s-.48-.27-.76-.33a16.78,16.78,0,0,1-6.48-2.73c-1.14-.84-1.58-2.27-2.16-3.54a11.84,11.84,0,0,1-.66-5.66,3.43,3.43,0,0,1,3.29-2.94,3.31,3.31,0,0,1,3.33,1.32A15,15,0,0,0,207.4,131a1.23,1.23,0,0,1,.66,1.75,42.48,42.48,0,0,0-1.25,7.15c-.17,1.31-.31,2.62-.45,3.94-.05.53-.4.63-.83.7a18,18,0,0,0-5.5,1.52,6.16,6.16,0,0,0-1.19.58,2,2,0,0,1-2.87,0,38.7,38.7,0,0,1-4.47-3.77c-.39-.4-.41-.6.12-.88A13.88,13.88,0,0,1,198.47,140Z"/><path class="cls-icon-money-hands-14" d="M175,132.54c-.21.31-.23.92-.89.65-1.3-.54-2.61-1-3.87-1.66-.45-.22-1.17-.63-.69-1.33.65-1,1.35-1.05,2.05-.49,1,.77,1.92,1.51,2.87,2.27C174.71,132.13,175,132.21,175,132.54Z"/><path class="cls-icon-money-hands-3" d="M175.95,145.39l.67-1.11.22.22-.66,1.11C176,145.66,175.87,145.62,175.95,145.39Z"/><path class="cls-icon-money-hands-15" d="M164,125.19a.9.9,0,0,1-.52-.6,1.46,1.46,0,0,1,1,.37A.49.49,0,0,0,164,125.19Z"/><path class="cls-icon-money-hands-4" d="M197.94,153.37a.46.46,0,0,1-.45.23c.43.31,1.55,1.33,2,1.19A19.13,19.13,0,0,0,197.94,153.37Z"/><path class="cls-icon-money-hands-3" d="M175.95,145.39l.23.22-1.12,1.46A3.31,3.31,0,0,1,175.95,145.39Z"/><path class="cls-icon-money-hands-16" d="M177.73,147.83l-1.12,1.32h0a18.92,18.92,0,0,0-3.23,3.54c-.15.27-.53.56-.1.83a.71.71,0,0,0,1-.19c.83-1.33,4.19-5.84,4.34-6.31A1.78,1.78,0,0,0,177.73,147.83Z"/><path class="cls-icon-money-hands-3" d="M193,154l-1.1,1.56a1.21,1.21,0,0,0-.46,1c.23-.27,1.22-1.54,1.79-2.36Z"/><path class="cls-icon-money-hands-17" d="M207.28,95.56c5.88,8.31,23.26,28.37,26.31,31.84,1,1.12,3.29,1.56,2.43.25-.44-.67.14-.42.36-.51-4.94-6.14-9.66-12.43-14.49-18.65-4.58-5.9-9.18-11.78-13.88-17.57-2-2.41-4.65-4.11-6.72-6.44a1.63,1.63,0,0,0-.9-.4,26.29,26.29,0,0,0-6.57-.84,53.49,53.49,0,0,1-7.87-.13c-3.47-.48-7-.93-10.45-1.2q-9.39-.71-18.79-1.32c-7.34-.47-14.68-.87-22-1.34C129,78.9,123.23,79,117.5,79a6.44,6.44,0,0,0-1.64.21c-9.49,2.37-18.94,4.93-28.28,7.83a53.46,53.46,0,0,0-9.37,3.36c-4.51,2.38,0,.25-4.83,2a69.48,69.48,0,0,0-17.2,8.87c-1.91,1.41-3.41,3.27-5.37,4.63-.68.47-1.65.92-1.13,2s1.44.46,2.12.21c.79,1.5.92,3.18,1.51,4.74,4.7-4.12,8.9-10.83,19-14.47,12.46-4.5,35.65-12.93,42.23-14s61.73,2.77,74.19,4.15S201.4,87.26,207.28,95.56Z"/></g><g class="cls-icon-money-hands-18"><circle class="cls-icon-money-hands-19" cx="208.07" cy="169.19" r="14.82"/></g><g class="cls-icon-money-hands-20"><circle class="cls-icon-money-hands-21" cx="205.98" cy="168.14" r="14.82"/></g><path class="cls-icon-money-hands-11" d="M221.89,108c-4.58-5.9-9.18-11.78-13.88-17.57-2-2.41-3.58-3.57-5.65-5.9a8,8,0,0,0-2-.94,26.41,26.41,0,0,0-6.57-.84,53,53,0,0,1-7.87-.13c-3.47-.48-7-.93-10.45-1.2q-9.39-.71-18.79-1.32c-7.34-.47-14.68-.87-22-1.34-5.73-.36-11.46-.27-17.19-.31a6.57,6.57,0,0,0-1.64.21c-9.49,2.37-18.94,4.93-28.28,7.83a53.19,53.19,0,0,0-9.37,3.37c-4.51,2.38,0,.25-4.83,2a69.57,69.57,0,0,0-17.2,8.87c-1.91,1.41-3.41,3.27-5.37,4.63l2.83,3.92,1.65-1.21c5.93-4.35,6.83-7.24,24.57-13.7C100.6,86.81,113.54,84,117.79,83.09c4.06-.88,33.65.8,53.62,2.75,8.31.81,14.39,1.11,18.82,1.33a53,53,0,0,1,8.26.73c1.93.54,2.15.69,5.55,5.27l.07.1c3.69,5,23.78,25.62,27.41,29.85,1.62,1.89,6.73,9.82,6,6C236.77,124.73,224.53,111.36,221.89,108Z"/><path class="cls-icon-money-hands-22" d="M86.32,151.4,65,94.63l-27.87,9.79S57.48,159,58.85,160.11,86.32,151.4,86.32,151.4Z"/><path class="cls-icon-money-hands-23" d="M86.32,151.4l-10.45-29L56.72,98.91l-9.25,33.54s10,26.58,11.39,27.66S86.32,151.4,86.32,151.4Z"/><path class="cls-icon-money-hands-12" d="M79.65,160.1l-22.91-64-27.86,9.79s21.94,61.89,23.31,63S79.65,160.1,79.65,160.1Z"/></svg>