<svg xmlns="http://www.w3.org/2000/svg" viewBox="0 0 382.59 382.59" class="icon icon-money-hand"><defs><style>.cls-icon-money-hand-1{isolation:isolate;}.cls-icon-money-hand-2{fill:#434a60;}.cls-icon-money-hand-10,.cls-icon-money-hand-11,.cls-icon-money-hand-12,.cls-icon-money-hand-2,.cls-icon-money-hand-3,.cls-icon-money-hand-5,.cls-icon-money-hand-6,.cls-icon-money-hand-7,.cls-icon-money-hand-8,.cls-icon-money-hand-9{fill-rule:evenodd;}.cls-icon-money-hand-3{fill:#dfecf0;}.cls-icon-money-hand-4{mix-blend-mode:darken;}.cls-icon-money-hand-5{fill:#9e6343;}.cls-icon-money-hand-13,.cls-icon-money-hand-6{fill:#c96d39;}.cls-icon-money-hand-18,.cls-icon-money-hand-7{fill:#f0a15f;}.cls-icon-money-hand-8{fill:#ee9350;}.cls-icon-money-hand-9{fill:#f3ae6d;}.cls-icon-money-hand-10{fill:#d78350;}.cls-icon-money-hand-11{fill:#d2763f;}.cls-icon-money-hand-12{fill:#d97e43;}.cls-icon-money-hand-14{fill:#c46637;}.cls-icon-money-hand-15{fill:#fcd524;}.cls-icon-money-hand-16{fill:#efa630;}.cls-icon-money-hand-17{fill:#e4a44b;mix-blend-mode:screen;}</style></defs><title>money_hands</title><g class="cls-icon-money-hand-1"><g id="Layer_1" data-name="Layer 1"><path class="cls-icon-money-hand-2" d="M127.25,196.57c-4.76,13.72-5.68,38,2.1,53.54,7.43,14.86,55.17,48.88,69.74-4a10.7,10.7,0,0,0-.57-5.72Z"/><path class="cls-icon-money-hand-3" d="M127.25,193.13c0,3.43-2.16,22.76,2.67,38.7,5.72,18.86,27,28.78,39.87,29.25s23.58-4,27.59-18.38Z"/><g class="cls-icon-money-hand-4"><path class="cls-icon-money-hand-5" d="M194.8,236.1c-3.64,13.08-13.38,17.11-25,16.68s-31.62-17.13-36.18-26.54c-6.53-13.47-5-20.71-5-20.71Z"/></g><g id="_1CiKa0" data-name="1CiKa0"><path class="cls-icon-money-hand-6" d="M175.08,112.55l-.57,1.36c-.16.14-.47.18-.43.48.1.81-.27,1.57-.25,2.38,0,1.52,0,3.05,0,4.58a108.18,108.18,0,0,0,.84,12c.2,1.77.3,3.55.43,5.33.19,2.54,0,5.07.14,7.6a13,13,0,0,1-.78,4.35c-.28.06-.43-.4-.68-.19s-.14.54-.08.8a2.57,2.57,0,0,1-.39,2.55c-.19.21-.42.54-.17.84s.53.15.8.08c.43-.12.72,0,.81.45a19.31,19.31,0,0,1,.64,7.3,7.19,7.19,0,0,1-7.1,6.26,13,13,0,0,1-10-4,34.78,34.78,0,0,1-5.19-6.16,18.5,18.5,0,0,0-1.35-1.8,4.74,4.74,0,0,1-1.11-2.92c-.44-1.39-.8-2.8-1.13-4.22a22.1,22.1,0,0,1-1.13-5.35c-.27-1.79-.52-3.58-.89-5.34a56,56,0,0,1-.68-12,23.93,23.93,0,0,1,.35-3.31c0-.33.21-.73-.25-.94l-1.15,2.75a5.35,5.35,0,0,0-.36,2.12,71.37,71.37,0,0,0,1.29,14.65c.61,3.72,1.29,7.44,1.68,11.2.14,1.38.78,2.63,1,4a14.25,14.25,0,0,1-.29,5.46,5,5,0,0,1-6,3.56,10.63,10.63,0,0,1-4.22-2.06c-2.2-1.64-4.54-3.19-6.08-5.49-2-3-4.19-5.94-4.83-9.63-.23-1.32-.4-2.66-.6-4a2.07,2.07,0,0,0-.45-1.28,1.24,1.24,0,0,0-.05.91c.09,2.61.23,5.22.26,7.83,0,2.07-.07,4.14-.11,6.21,0,.28,0,.57,0,.85.55.12.76-.33,1-.65.56-.65.7-.67,1.1.07,1.42,2.61,3,5.11,4.63,7.61a32.74,32.74,0,0,0,6.18,7.1l.3.25c.62.52.6.75-.18,1-1.17.41-2.34.84-3.53,1.17a29.59,29.59,0,0,1-7.33,1.1c-.85,0-1.69.19-2.55.14-.48,0-.67.24-.76.65,0,0,0,0,0,0,0,.26-.19,1.52.09,1.82a4.34,4.34,0,0,0,2-.05c1.35-.13,2.7-.23,4-.42,3.26-.35,6.52-.76,9.78-1.17,2.67-.33,5.33-.69,8-1.11.74-.12,1.5,0,2.25-.08a44.28,44.28,0,0,1,6-1.44,13,13,0,0,1,1.55-.08,64.1,64.1,0,0,0,7.5-.41,39.15,39.15,0,0,1,7.12.14c3.81.37,7.59,1,11.39,1.44a20.43,20.43,0,0,0,7.07-.64,25,25,0,0,0,7-2.74,8.27,8.27,0,0,0,2.46-2.22,22.3,22.3,0,0,0,3.15-5.14,10.45,10.45,0,0,0,.71-3.71c.1-5.35.15-10.7.19-16,0-2.86.36-5.72.66-8.57.23-2.18.5-4.37.64-6.56a28.67,28.67,0,0,0-.31-3.86c-.19-2.68-.71-5.33-1-8a20.54,20.54,0,0,0-.2-3.24,51.34,51.34,0,0,1-1.09-5.47c-.44-2.18-.68-4.39-.93-6.59,0-.26,0-.6-.37-.66a.65.65,0,0,1-1-.15c-.47.17-.28.54-.24.84.18,1.15.38,2.3.68,3.42a91.15,91.15,0,0,1,1.67,9.94c.28,1.87.4,3.75.5,5.63.09,1.63.14,3.25.13,4.88a42.08,42.08,0,0,1-1.72,11.78,46.83,46.83,0,0,0-1.37,8.18,73.46,73.46,0,0,1-2.34,13.2c-.43,1.41-.91,2.81-1.38,4.2a4.27,4.27,0,0,1-1.25,1.85c-2.7,2.36-5.71,3.74-9.39,2.77a12.94,12.94,0,0,1-4.11-2.29A10.55,10.55,0,0,1,180.1,162c-.46-1.38-.83-2.78-1.17-4.18s-.63-2.88-1.08-4.29a14,14,0,0,1-.59-4.29c0-2.31-.32-4.59-.44-6.88-.21-4-.92-8-1.14-12-.15-2.74-.46-5.46-.71-8.18a25,25,0,0,1,0-4.65c.11-1.23.11-2.48.21-3.71C175.23,113.57,175.51,112.71,175.08,112.55Z"/><path class="cls-icon-money-hand-7" d="M152,177c-2.23-.16-4.39.44-6.58.68-2.35.25-4.68.58-7,.88l-5.73.72-.69.06c-.34.16-.32.49-.36.8-.19,1.49-.11,3-.31,4.48a41.22,41.22,0,0,0,.13,7,88.1,88.1,0,0,0,1,9.71,56.83,56.83,0,0,0,2.19,9.44,29.41,29.41,0,0,0,3.14,6,45.71,45.71,0,0,0,7.91,10.12,34.26,34.26,0,0,0,15.73,8.32c.55.13,1.13.14,1.68.29a1.65,1.65,0,0,0,2.14-.89,3.93,3.93,0,0,1,.4-.57,26,26,0,0,0,3.24-4.69c1.16-2,2.46-4,3.77-6s3.37-3.27,4.61-5.4a4.46,4.46,0,0,1,.49,1.57c.66,2.71,1.29,5.43,2.16,8.09a31.25,31.25,0,0,0,2.48,5.34,1.5,1.5,0,0,0,.39.48,18.12,18.12,0,0,0,6,3.26,8.13,8.13,0,0,0,2.84.08,27.51,27.51,0,0,0,11.25-3.71c.75-.41,1.52-.78,2.28-1.16a15,15,0,0,0,3.63-2.21.94.94,0,0,1,1.33-.1c.1.08.23.12.34.19a2.18,2.18,0,0,0,2.76-.12,17.66,17.66,0,0,1,5.24-2.48,7.92,7.92,0,0,0,2.6-1.49,33.55,33.55,0,0,1,5.69-4,31.61,31.61,0,0,1,10.14-3c2.3-.34,4.62-.48,6.94-.66,1.4-.11,2.79-.15,4.18-.13a19.77,19.77,0,0,1,8,1.38.58.58,0,0,0,.23,0,3.39,3.39,0,0,0,1.51-2.86,7.38,7.38,0,0,0-.18-2.82c-.79-1.86-2.15-3.89-6.2-6.08a25.53,25.53,0,0,0-3.9-1.49,41.56,41.56,0,0,0-7.15-1,60,60,0,0,0-7.82.25,28.29,28.29,0,0,0-8,2.21A71.32,71.32,0,0,0,211,215.26c-.51.42-1.06.79-1.57,1.22a1.34,1.34,0,0,1-2-.23,16,16,0,0,0-2.4-2,.92.92,0,0,1-.34-1.27,75.79,75.79,0,0,1,6.51-13,4,4,0,0,0,.62-3,2.35,2.35,0,0,0-.79-1.39,22.2,22.2,0,0,0-7.19-4.35,41.36,41.36,0,0,0-11.78-2.56c-2.78-.23-5.55-.58-8.32-.86-1.77-.18-3.55-.28-5.33-.39-2.82-.17-5.63-.12-8.45-.14a2.41,2.41,0,0,1-1-.27,86.21,86.21,0,0,1-11.31-6.75,36,36,0,0,0-5-2.54C152.3,177.59,152,177.41,152,177Z"/><path class="cls-icon-money-hand-8" d="M152,177c-.46.3-.46.53.08.75,4.18,1.62,7.69,4.4,11.48,6.7,1.79,1.09,3.72,1.9,5.52,3a1.55,1.55,0,0,0,.83.15h3.73c2.71,0,5.41.15,8.11.34s5.19.68,7.8.86c2.13.15,4.25.33,6.36.66a30.6,30.6,0,0,1,13.9,5.42c.45.34.81.79,1.28,1.13a1.36,1.36,0,0,1,.51.94,4.11,4.11,0,0,1-.54,3,65.42,65.42,0,0,0-6,11.71c-.22.55-.45,1.1-.71,1.63a.81.81,0,0,0,.35,1.17A26,26,0,0,1,208,217c.25.24.47.44.75.07s.75-.08.91-.5a4.91,4.91,0,0,1,1.34-1.23c.8-.81,1.6-1.62,2.35-2.47a4.18,4.18,0,0,1,.35-.42,10.81,10.81,0,0,0,2.48-3.1c1.27-2.33,2.89-4.46,3.87-7a38.36,38.36,0,0,0,2.23-9.48,73.32,73.32,0,0,0,.45-11.53c-.11-2.69-.06-5.38-.15-8.06a11.69,11.69,0,0,0-5.49-9.29,5.27,5.27,0,0,1,2.84,1.43c.8.62,1,.53,1.14-.47a30.42,30.42,0,0,0,0-7.11c-.15-2.45-.42-4.89-.66-7.33-.06-.57.14-1.12.14-1.7a31.71,31.71,0,0,0-.87-7.76,1,1,0,0,1,.15-1.09c1.57-1.63,2.06-3.71,2.44-5.85a17.48,17.48,0,0,0,.21-2.55c.09-2.71.47-5.41.07-8.13a12.85,12.85,0,0,0-2-5.09,5.06,5.06,0,0,0-2.76-1.9c-1.36-.5-2.74-.91-4.1-1.41,1.19.21,2.39.21,3.59.3a7.1,7.1,0,0,0,7.74-4.78,14.16,14.16,0,0,0,1.06-8.19,3.64,3.64,0,0,0-2.71-3.16,23.67,23.67,0,0,1-4.12-1.79c-.72-.34-1.39-.78-2.1-1.15.73.37,1.43.81,2.17,1.16a6.24,6.24,0,0,0,3,.85c.28,0,.61,0,.76-.26s-.06-.6-.25-.84c-.33-.42-.65-.86-1-1.26a26.91,26.91,0,0,0,10.28,3.83,42,42,0,0,0,7.35,0,24.3,24.3,0,0,0,3.31-.37,7.69,7.69,0,0,0,2.52-1,6.15,6.15,0,0,1,1.19-.7c3.09-2.73,5.08-6,5.1-10.25a2.24,2.24,0,0,0-.41-1.68,1.69,1.69,0,0,0-1-.75,10.45,10.45,0,0,0-3.27-.55c-3.72,0-7.44.15-11.16.19a74.22,74.22,0,0,0-7.86.81,62.09,62.09,0,0,1-11.06.29,1.92,1.92,0,0,0-1.88,1,69.9,69.9,0,0,0-6.34,12.75,33.62,33.62,0,0,0-1.77,7.53,11.08,11.08,0,0,1-.38,1.82,29.2,29.2,0,0,0-.91,7.1,28.64,28.64,0,0,0,.44,4.17c.3,1.75.47,3.51.67,5.27q.24,2.1.43,4.21c.25,2.76-.36,5.47-.59,8.19-.16,1.95-.35,3.89-.49,5.84-.31,4.49,0,9-.21,13.48-.11,2.24.07,4.48-.24,6.72a10.49,10.49,0,0,1-1.43,3.89c-1.15,2-2.32,4-4.27,5.22a21.67,21.67,0,0,1-6,2.6,23.51,23.51,0,0,1-7.62,1c-1.71-.09-3.42-.39-5.12-.65-2.08-.31-4.18-.51-6.27-.75a41.37,41.37,0,0,0-6.17-.28c-3.42.12-6.83.56-10.27.5a14.91,14.91,0,0,0-4.95,1.09C153,176.71,152.51,176.83,152,177Z"/><path class="cls-icon-money-hand-6" d="M168.63,229.31a25.75,25.75,0,0,1-3.1,4.49,9.61,9.61,0,0,0-1,2.42c-.14.6-.46.71-1,.6a37.63,37.63,0,0,1-6-1.74,62.2,62.2,0,0,1-10.2-5.06,18.28,18.28,0,0,1-4.59-4.24,94.94,94.94,0,0,1-6.94-10.1,63,63,0,0,1-6-12.91,21.09,21.09,0,0,0-1.1-3.23c-.15-.29-.22-.73-.72-.68a79,79,0,0,0,1.79,11.71,49.32,49.32,0,0,0,2.48,7.06,28.52,28.52,0,0,0,4,6.53c1.79,2.38,3.67,4.68,5.54,7,2.67,3.31,6.16,5.71,9.69,8s7.77,3.81,11.87,5.25a30.87,30.87,0,0,0,11.2,1.66,110.11,110.11,0,0,0,18.27-2.46c5.45-1.08,10.8-2.63,16.25-3.7,3.25-.64,6.52-1.08,9.81-1.51a46.38,46.38,0,0,0,16.62-5.22,31.67,31.67,0,0,0,4.09-2.81c3.16-2.45,6.87-3.64,10.59-4.84,1.62-.52,3.25-1,4.86-1.58,2.62-.89,3.79-2.79,4-5.4q0-.78,0-1.56a11.45,11.45,0,0,0-1.4-3.43c0,.88,0,1.76,0,2.64a4,4,0,0,1-1.39,3c-2.48,2-5.37,3.39-8.08,5a47.25,47.25,0,0,1-5,2.36,48.3,48.3,0,0,0-8.3,4.84,5.38,5.38,0,0,1-1.64.85,51.32,51.32,0,0,1-8.16,2.19,50.16,50.16,0,0,1-8.66.47,21.54,21.54,0,0,0-7.61,1.24c-3.28,1-6.54,2.16-9.89,3a56.77,56.77,0,0,1-11,1.6c-1.73.07-3.46.16-5.19.1a27.94,27.94,0,0,1-11.08-2.69,7.77,7.77,0,0,1-1.86-1.25,4.41,4.41,0,0,1-1.37-3.94c.09-1,.28-2,.41-3C168.88,229.76,169.05,229.42,168.63,229.31Z"/><path class="cls-icon-money-hand-6" d="M219.09,97.48a15.94,15.94,0,0,0,4.43,2,3.15,3.15,0,0,1,2.32,2.64,13.65,13.65,0,0,1-1.82,10,6.13,6.13,0,0,1-5.64,3.07c-1.77,0-3.54-.2-5.33-.25a10.56,10.56,0,0,0,2.55,1c.88.3,1.75.61,2.63.9,1.84.61,2.63,2.16,3.3,3.76a16.06,16.06,0,0,1,.84,8c-.14,1.41-.1,2.83-.2,4.25-.15,2.24-.51,4.5-1.94,6.25a2.86,2.86,0,0,0-.59,2.93,23,23,0,0,1,.65,7.05c-.15,3.1.53,6.13.62,9.21.06,2.15.4,4.32-.09,6.47a7.43,7.43,0,0,0-.07,1.09c-1.34-1.11-2.6-2.14-4.45-2.19.78.6,1.5,1.1,2.15,1.68a11.27,11.27,0,0,1,3.75,6.83,26.29,26.29,0,0,1,.14,4.41c0,2.92.25,5.83.17,8.75a64.21,64.21,0,0,1-1.38,12.79,29.36,29.36,0,0,1-4.17,9.51,8,8,0,0,0-1.67,3,.24.24,0,0,1-.09.12,62.43,62.43,0,0,0-4.48,4.58c0,.26.12.26.3.15a92.58,92.58,0,0,1,8-5,43.7,43.7,0,0,1,8.56-3.91,27.35,27.35,0,0,1,6.5-1.23c2-.16,4.08-.1,6.12-.11,1.75,0,6.54.59,6.54.59a85,85,0,0,0-8.55-1.59,36,36,0,0,0-8.51.15c-.43.07-.57-.09-.63-.44a6.76,6.76,0,0,1-.19-1.14c-.05-3.66-1-7.19-1.46-10.79s-.9-7.44-1.33-11.16a3.1,3.1,0,0,1,0-1,26.68,26.68,0,0,0-.57-12.65c-.86-3.3-2.06-6.51-2.62-9.88a22.1,22.1,0,0,1-.1-6.64,29.48,29.48,0,0,1,.77-5.51c1.91-5.71,2.19-11.65,2.53-17.59.19-3.31.65-6.58,1.06-9.86a46.51,46.51,0,0,1,1.69-6.58,27.75,27.75,0,0,0,.63-5.38,16,16,0,0,1,.72-3.8.75.75,0,0,1,.88-.6,37.69,37.69,0,0,0,10.83-1.09,10.52,10.52,0,0,0,3.73-1.84c0-.15,0-.22-.16-.17a14.16,14.16,0,0,1-5.12,1.28c-1.57.19-3.14-1-4.7-.93-2.3,0-4.62.42-6.85-.32-2.57-.86-5-1.42-7.4-2.91a8,8,0,0,0,1.38,2c.14.17.36.36.23.6s-.38.09-.57.11a9.73,9.73,0,0,1-3.2-.78C219.08,97.26,219.05,97.34,219.09,97.48Z"/><path class="cls-icon-money-hand-9" d="M205.55,116.1c.31-.48,1-6,1.36-8.25A53.66,53.66,0,0,1,209,99.23a50.85,50.85,0,0,1,3.46-7.43c.79-1.48,1.64-2.92,2.45-4.4.6-1.1,1-1.23,2.27-1.21,2.48,0,5,.14,7.43-.08,1.36-.12,2.72-.22,4.07-.36,1.58-.16,3.16-.4,4.74-.55a31.11,31.11,0,0,1,3.7-.23c1.45,0,2.9.08,4.34,0q2.75-.18,5.49-.13a8.13,8.13,0,0,1,4.29,1.07,3.49,3.49,0,0,0-3.12-3.28,22.43,22.43,0,0,0-6.31-.21,48.55,48.55,0,0,1-9.8,0c-2.69-.31-5.38-.55-8.07-.83-.95-.1-1.89-.22-2.84-.33h-1.72a10,10,0,0,0-5.76,2.21,10.41,10.41,0,0,0-2.45,3.63c-1.83,3.72-4,7.26-5.64,11.11-.73,1.74-1.29,3.52-2,5.27a13.64,13.64,0,0,1,.43,3.18c.21,2.18.77,4.3,1,6.47A21.76,21.76,0,0,0,205.55,116.1Z"/><path class="cls-icon-money-hand-10" d="M245.48,98.25l.16.17a3,3,0,0,0,.92-.67C246.08,97.66,245.83,98.06,245.48,98.25Z"/><path class="cls-icon-money-hand-8" d="M175,112.75a5.18,5.18,0,0,0,0,1.09c-.16,2.57-.37,5.14-.3,7.73,0,1.75.36,3.48.53,5.21a3.37,3.37,0,0,1,.07.38,43.09,43.09,0,0,0,.33,5.48c.17,1.66.38,3.32.56,5,.12,1.1.32,2.2.35,3.3.08,3,.54,6,.51,9a20.28,20.28,0,0,0,1,5.36c.68,2.59,1.24,5.2,2.14,7.74a11.28,11.28,0,0,0,5.16,6,9.31,9.31,0,0,0,4.88,1.47,10.39,10.39,0,0,0,5.37-1.73,7.87,7.87,0,0,0,3.63-4.7,68,68,0,0,0,2.4-9.42c.38-2.31.54-4.65.84-7A71.13,71.13,0,0,1,204.55,137a31.66,31.66,0,0,0,.9-6.17,44.38,44.38,0,0,0,.1-5.26c-.12-2.93-.33-5.84-.68-8.77-.53-4.43-1.52-8.76-2.37-13.12,0-.18-.06-.36.1-.5a3,3,0,0,0-1.07-1.2,18.22,18.22,0,0,0-11.94-4.25,9.32,9.32,0,0,0-5.45,1.95,25.38,25.38,0,0,0-8.21,10.8Z"/><path class="cls-icon-money-hand-8" d="M146.94,122.65c0,.36-.11.82-.17,1.13a20.84,20.84,0,0,0-.18,3.44c0,2.84-.09,5.69.17,8.52.12,1.33.45,2.63.67,3.95.4,2.48.77,5,1.19,7.45a10.3,10.3,0,0,0,.76,2.65c.3-.33.2-.73.16-1.11-.23-2.34-.8-4.64-.93-7-.09-1.7-.07-3.41-.11-5.11a63.56,63.56,0,0,1,.55-7.88,39.68,39.68,0,0,1,2.38-9.28,25,25,0,0,1,1.11-2.48,11.83,11.83,0,0,1,5.53-5.45,2.89,2.89,0,0,0,.79-.48,7,7,0,0,1,4.18-1.85,8.6,8.6,0,0,1,5.31,1.08,16.55,16.55,0,0,1,4.56,3.29,7.47,7.47,0,0,0-1.33-.33c-.8-.12-1,.06-.79.81a31.6,31.6,0,0,1,.71,6.38,28.19,28.19,0,0,1-1.24,8.17c-.11.45-.22.9-.33,1.36a2.56,2.56,0,0,0-.09,1.31c.58,1.95,0,3.94.27,5.89.17,1.15.17,2.32.4,3.46a20.05,20.05,0,0,1-.13,6.93c-.13.87-.1,1.75-.23,2.62a30.39,30.39,0,0,1-.67,3.11c-.27,1.08-1.25,1.29-2.15,1.77.19-.38.43-.61.58-.9s.32-.5.07-.7-.42.08-.6.22-.45.42-.71.61a35.3,35.3,0,0,1-4.21,2.3,3.71,3.71,0,0,1-1.52.25,20.92,20.92,0,0,1-7.61-.61,3.59,3.59,0,0,1-2.44-2c-.08-.18-.15-.41-.43-.37a4.5,4.5,0,0,0,1,2.87c1.3,1.51,2.21,3.3,3.54,4.78a27.93,27.93,0,0,0,5,5,13.33,13.33,0,0,0,9.31,2.31,7.59,7.59,0,0,0,6.2-5.71,12.75,12.75,0,0,0,0-5c-.12-1-.38-2-.55-3-.11-.62-.34-.95-1-.62-.22.1-.53.31-.72.08s.12-.5.26-.64c1-1,.48-2.21.27-3.4.41.05.36.52.71.64a11.8,11.8,0,0,0,.94-3.8c0-2.38.11-4.76,0-7.14s-.28-4.72-.55-7.07c-.21-1.86-.39-3.73-.55-5.6-.31-3.69-.29-7.38-.25-11.06a6.73,6.73,0,0,1,.42-2.54c-.39.07-.54-.26-.74-.47-.7-.73-1.32-1.54-2.08-2.19a12.17,12.17,0,0,0-14.41-1.38,23.29,23.29,0,0,0-8.33,8.68A31.75,31.75,0,0,0,146.94,122.65Z"/><path class="cls-icon-money-hand-8" d="M126.85,144.85a39,39,0,0,1,.8,3.88,11.08,11.08,0,0,0,1,3.56,49.91,49.91,0,0,0,4.28,7.15,21.33,21.33,0,0,0,3.72,3.48,21.78,21.78,0,0,0,4.88,3.24,5.77,5.77,0,0,0,5.89-.47,5.37,5.37,0,0,0,2.11-3.89,13.1,13.1,0,0,0-.47-6.49,26.9,26.9,0,0,1-.75-4.48c-.34-1.82-.6-3.65-.86-5.48-.42-3-.94-5.88-1.37-8.83a62.89,62.89,0,0,1-.45-9.11c0-.67.08-1.18.15-2-1.41-.49-2.82-1-4.24-1.46a10.9,10.9,0,0,0-8.29.47c-3.6,1.68-5.41,4.74-6.42,8.46a22.61,22.61,0,0,0-.33,8.14C126.63,142.28,126.62,143.57,126.85,144.85Z"/><path class="cls-icon-money-hand-8" d="M125.89,178.41c.19-.17.27-.69.66-.68a47,47,0,0,0,5.08-.29,24.36,24.36,0,0,0,6.31-1.37,18.62,18.62,0,0,0,2.63-.9c.69-.38.7-.54.09-1a28.5,28.5,0,0,1-4.19-4.21c-2.88-3.34-4.9-7.24-7.17-11-.58-1-.66-.95-1.35-.05a2.09,2.09,0,0,1-.91.81c0,1.29,0,2.58,0,3.88a97,97,0,0,1-.86,12C126,176.45,126,177.54,125.89,178.41Z"/><path class="cls-icon-money-hand-8" d="M125.91,180.55c0,.26,0,.52,0,.77.1,4,.92,7.86,1.34,11.8.18,1.66.37,3.32.56,5,0,.25,0,.52.13.75a6.59,6.59,0,0,1,1.36,3.06,58.87,58.87,0,0,0,3.93,9.57,94,94,0,0,0,5.65,9.42,57.82,57.82,0,0,0,5.52,7.14,17.52,17.52,0,0,0,4.34,3.08,59.43,59.43,0,0,0,10.49,4.77,25,25,0,0,0,4.72,1.16c.26,0,.5.11.62-.25.32-1,.65-2,1-3a5.85,5.85,0,0,0-.68.93,1.13,1.13,0,0,1-1.36.61,32,32,0,0,1-11.51-4.1,33.23,33.23,0,0,1-7.16-5.48,50.94,50.94,0,0,1-6.85-9,35.91,35.91,0,0,1-2.86-5.22,40.29,40.29,0,0,1-2-7.52,76.45,76.45,0,0,1-1.12-8.16c-.23-2.59-.31-5.19-.49-7.78-.19-2.85.39-5.64.39-8.46a.83.83,0,0,1,.12-.28,29.75,29.75,0,0,1-6.15.18Z"/><path class="cls-icon-money-hand-9" d="M150.46,153.84c.74,2.07,2.49,2.62,4.41,3a24.52,24.52,0,0,0,5.08.29,7.1,7.1,0,0,0,3.62-.85c1.47-.89,3.14-1.44,4.35-2.78-.13.75-.77,1.19-1.06,1.84a3.29,3.29,0,0,0,2.9-2.29,30.11,30.11,0,0,0,.78-4.94c.18-1.66.36-3.31.43-5s-.51-3.35-.54-5.05-.46-3.53,0-5.29c.06-.24.14-.47,0-.66a2,2,0,0,1-.26-2c.44-2.06,1.06-4.08,1.36-6.17a21.3,21.3,0,0,0,0-6.14,20.1,20.1,0,0,0-.62-4.18c-.12-.33.19-.3.38-.26a6.09,6.09,0,0,1,2.14.74c-.05-.75-.59-1.05-1-1.36-2-1.61-4.11-3.14-6.72-3.65a7.58,7.58,0,0,0-7,1.78,13.05,13.05,0,0,1-1.82,1,13.07,13.07,0,0,0-5,5.77,57.7,57.7,0,0,0-2.18,6,48.52,48.52,0,0,0-1.36,8.5,64.61,64.61,0,0,0-.13,7.2,39.66,39.66,0,0,0,.88,8,20.86,20.86,0,0,1,.2,2.46A33.29,33.29,0,0,0,150.46,153.84Z"/><path class="cls-icon-money-hand-8" d="M168.63,229.31a4.23,4.23,0,0,1-.11,1.48,12.66,12.66,0,0,0-.31,3.37,4.78,4.78,0,0,0,2.94,4,27.44,27.44,0,0,0,8.52,2.66,34.73,34.73,0,0,0,6.64.28A60.84,60.84,0,0,0,202,238.54c3.43-1,6.8-2.28,10.3-3.08a9.54,9.54,0,0,1,2.14-.27c2.61,0,5.22.08,7.82-.16a33.24,33.24,0,0,0,7.49-1.4c.91-.3,1.8-.64,2.73-.85a9.71,9.71,0,0,0,3.45-1.83,50.14,50.14,0,0,1,9.38-5.08,47.21,47.21,0,0,0,5.92-3.2,33.57,33.57,0,0,0,4.51-2.85c.2-.17.42-.31.44-.6a8.27,8.27,0,0,0-3.85-1.24,29.78,29.78,0,0,0-6.78-.3q-3.57.18-7.14.58a44.08,44.08,0,0,0-8.06,1.67,23.12,23.12,0,0,0-8.52,4.89,15.88,15.88,0,0,1-5.23,2.86,15.38,15.38,0,0,0-4,2.14,1.07,1.07,0,0,1-1.32.13,7,7,0,0,1-1.11-.54c-.57-.48-1-.32-1.47.1a12.55,12.55,0,0,1-3,1.91,87.52,87.52,0,0,1-8.6,4.06,28.49,28.49,0,0,1-4.82,1,8.21,8.21,0,0,1-4.61-.31,17.81,17.81,0,0,1-4.89-2.93,7.13,7.13,0,0,1-1.28-2.19,36.45,36.45,0,0,1-2.81-8.25c-.42-1.72-.84-3.44-1.26-5.18a1,1,0,0,0-.7.61,5.1,5.1,0,0,1-1.64,2c-2.49,2.32-4.15,5.24-5.92,8.08C169,228.63,168.82,229,168.63,229.31Z"/><path class="cls-icon-money-hand-11" d="M211,215.47a.31.31,0,0,1-.3-.15c-.42.37-1,.62-1.09,1.25Z"/><path class="cls-icon-money-hand-12" d="M219.09,97.48l.15-.16-2.15-1.23A6.45,6.45,0,0,0,219.09,97.48Z"/><path class="cls-icon-money-hand-9" d="M201.32,104a15,15,0,0,0-5.41-3.86A13.18,13.18,0,0,0,190.81,99a10.61,10.61,0,0,0-7.35,3c-3.7,3.51-5.53,7.88-6.41,12.75a13.37,13.37,0,0,0-.2,2.61c0,2.37-.19,4.74-.16,7.12,0,3.14.3,6.27.6,9.39.29,3,.8,5.91.82,8.9,0,1,.19,2,.3,3.06a1.33,1.33,0,0,0,.41.81,10,10,0,0,0,4.12,2.34c1,.32,1.91.62,2.86,1a11.75,11.75,0,0,0,6.25,0,12.06,12.06,0,0,0,6.66-3.65,15.31,15.31,0,0,0,3.22-4.48,6.39,6.39,0,0,0,.51-2,60.8,60.8,0,0,0,.09-7.64c-.11-2.5-.58-4.95-.71-7.44s-.39-5.27-.72-7.9c-.23-1.86-.3-3.74-.5-5.6a29.66,29.66,0,0,0-1.15-5.27c-.19-.62-.36-1.24-.57-1.85-.13-.39,0-.49.36-.51A11.81,11.81,0,0,1,201.32,104Z"/><path class="cls-icon-money-hand-9" d="M145.34,150.85a44.13,44.13,0,0,0-1.12-8.39c-.58-2.69-1.43-5.32-1.9-8-.2-1.16-.25-2.35-.46-3.51-.84-4.61-6.08-6.37-9.82-3.46a12.19,12.19,0,0,0-2.6,3.11,7.3,7.3,0,0,0-1.42,4.77c.31,2.8.29,5.6.53,8.39.09,1,1.94,7.14,3.36,8.85.58.69,1.32,1.25,1.9,1.94.85,1,2,1,3.16,1.18,2.89.6,5.37-.39,7.67-2a1.7,1.7,0,0,0,.71-1.4C145.35,151.78,145.34,151.32,145.34,150.85Z"/></g><path class="cls-icon-money-hand-8" d="M211.59,113.72c.86,2,3.15,1.51,6.64,3.13s5.32,5.71,4.46,14.23-4.85,10.24-4.85,10.24Z"/><path class="cls-icon-money-hand-13" d="M214.79,212.52c-1.72,1.52-9.72,5.53-10.86,12.19Z"/><rect class="cls-icon-money-hand-14" x="222.36" y="101.07" width="25.11" height="108.47"/><rect class="cls-icon-money-hand-15" x="221.18" y="205" width="27.22" height="4.54"/><rect class="cls-icon-money-hand-16" x="224.35" y="205" width="7.54" height="4.54"/><rect class="cls-icon-money-hand-15" x="221.18" y="197.95" width="27.22" height="4.55"/><rect class="cls-icon-money-hand-16" x="224.35" y="197.95" width="7.54" height="4.55"/><rect class="cls-icon-money-hand-15" x="221.18" y="190.89" width="27.22" height="4.55"/><rect class="cls-icon-money-hand-16" x="224.35" y="190.89" width="7.54" height="4.55"/><rect class="cls-icon-money-hand-15" x="221.18" y="183.84" width="27.22" height="4.55"/><rect class="cls-icon-money-hand-16" x="224.35" y="183.84" width="7.54" height="4.55"/><rect class="cls-icon-money-hand-15" x="221.18" y="176.79" width="27.22" height="4.55"/><rect class="cls-icon-money-hand-16" x="224.35" y="176.79" width="7.54" height="4.55"/><rect class="cls-icon-money-hand-15" x="221.18" y="169.73" width="27.22" height="4.55"/><rect class="cls-icon-money-hand-16" x="224.35" y="169.73" width="7.54" height="4.55"/><rect class="cls-icon-money-hand-15" x="221.18" y="162.68" width="27.22" height="4.55"/><rect class="cls-icon-money-hand-16" x="224.35" y="162.68" width="7.54" height="4.55"/><rect class="cls-icon-money-hand-15" x="221.18" y="155.62" width="27.22" height="4.55"/><rect class="cls-icon-money-hand-16" x="224.35" y="155.62" width="7.54" height="4.55"/><rect class="cls-icon-money-hand-15" x="221.18" y="148.57" width="27.22" height="4.55"/><rect class="cls-icon-money-hand-16" x="224.35" y="148.57" width="7.54" height="4.55"/><rect class="cls-icon-money-hand-15" x="221.18" y="141.52" width="27.22" height="4.55"/><rect class="cls-icon-money-hand-16" x="224.35" y="141.52" width="7.54" height="4.55"/><rect class="cls-icon-money-hand-15" x="221.18" y="134.46" width="27.22" height="4.55"/><rect class="cls-icon-money-hand-16" x="224.35" y="134.46" width="7.54" height="4.55"/><rect class="cls-icon-money-hand-15" x="221.18" y="127.41" width="27.22" height="4.55"/><rect class="cls-icon-money-hand-16" x="224.35" y="127.41" width="7.54" height="4.55"/><rect class="cls-icon-money-hand-15" x="221.18" y="120.35" width="27.22" height="4.55"/><rect class="cls-icon-money-hand-16" x="224.35" y="120.35" width="7.54" height="4.55"/><rect class="cls-icon-money-hand-15" x="221.18" y="113.3" width="27.22" height="4.55"/><rect class="cls-icon-money-hand-16" x="224.35" y="113.3" width="7.54" height="4.55"/><rect class="cls-icon-money-hand-15" x="221.18" y="106.25" width="27.22" height="4.55"/><rect class="cls-icon-money-hand-16" x="224.35" y="106.25" width="7.54" height="4.55"/><rect class="cls-icon-money-hand-15" x="221.18" y="99.19" width="27.22" height="4.55"/><rect class="cls-icon-money-hand-16" x="224.35" y="99.19" width="7.54" height="4.55"/><rect class="cls-icon-money-hand-17" x="238.8" y="99.19" width="5.53" height="4.55"/><rect class="cls-icon-money-hand-17" x="238.8" y="106.25" width="5.53" height="4.55"/><rect class="cls-icon-money-hand-17" x="238.8" y="113.3" width="5.53" height="4.55"/><rect class="cls-icon-money-hand-17" x="238.8" y="120.35" width="5.53" height="4.55"/><rect class="cls-icon-money-hand-17" x="238.8" y="127.41" width="5.53" height="4.55"/><rect class="cls-icon-money-hand-17" x="238.8" y="134.46" width="5.53" height="4.55"/><rect class="cls-icon-money-hand-17" x="238.8" y="141.52" width="5.53" height="4.55"/><rect class="cls-icon-money-hand-17" x="238.8" y="148.57" width="5.53" height="4.55"/><rect class="cls-icon-money-hand-17" x="238.8" y="155.62" width="5.53" height="4.55"/><rect class="cls-icon-money-hand-17" x="238.8" y="162.68" width="5.53" height="4.55"/><rect class="cls-icon-money-hand-17" x="238.8" y="169.73" width="5.53" height="4.55"/><rect class="cls-icon-money-hand-17" x="238.8" y="176.79" width="5.53" height="4.55"/><rect class="cls-icon-money-hand-17" x="238.8" y="183.84" width="5.53" height="4.55"/><rect class="cls-icon-money-hand-17" x="238.8" y="190.89" width="5.53" height="4.55"/><rect class="cls-icon-money-hand-17" x="238.8" y="197.95" width="5.53" height="4.55"/><rect class="cls-icon-money-hand-17" x="238.8" y="205" width="5.53" height="4.54"/><path class="cls-icon-money-hand-18" d="M253.95,210.9c-4.1-2.67-13-5.53-27.73,1.53l1.81,3.33,22.29-1.14,5.53-.48Z"/></g></g></svg>