<svg xmlns="http://www.w3.org/2000/svg" viewBox="0 0 256.37 256.37" class="icon icon-stat"><defs><style>.icon-stat-cls-1{fill:#fff;}.icon-stat-cls-2{fill:#a8a7a5;}.icon-stat-cls-3{fill:#2d2d2e;}.icon-stat-cls-4{fill:#ff7552;}</style></defs><title>ic</title><g id="Layer_4" data-name="Layer 4"><path class="icon-stat-cls-1" d="M175.37,144l-23.87,7.46-8.26,3.09A6,6,0,0,0,139.37,144h-18l-22-8h-20v32h12l34,12h4l50-26s2-2,2-4A6,6,0,0,0,175.37,144Z"/><rect class="icon-stat-cls-2" x="55.37" y="130" width="20" height="44"/><path class="icon-stat-cls-3" d="M113.37,162h-4a8,8,0,0,1,8-8h22a4,4,0,0,0,0-8H121l-22-8H83.37v-4H99.73l22,8h17.65a8,8,0,0,1,0,16h-22A4,4,0,0,0,113.37,162Z"/><path class="icon-stat-cls-3" d="M129.86,182H125L91,170H79.37v-4H91.72l34,12h3.17l49.26-25.62a4.7,4.7,0,0,0,1.23-2.38,4,4,0,0,0-3.72-4l-23.55,7.36-1.19-3.82L175.37,142a8,8,0,0,1,8,8c0,2.74-2.32,5.15-2.58,5.41l-.49.36Z"/><rect class="icon-stat-cls-3" x="67.37" y="162" width="4" height="4"/><rect class="icon-stat-cls-3" x="59.37" y="162" width="4" height="4"/><rect class="icon-stat-cls-3" x="75.37" y="130" width="4" height="44"/><rect class="icon-stat-cls-3" x="75.37" y="118" width="108" height="4"/><rect class="icon-stat-cls-4" x="83.37" y="98" width="8" height="16"/><rect class="icon-stat-cls-4" x="95.37" y="86" width="8" height="28"/><rect class="icon-stat-cls-4" x="107.37" y="70" width="8" height="44"/><rect class="icon-stat-cls-4" x="119.37" y="82" width="8" height="32"/><rect class="icon-stat-cls-4" x="131.37" y="74" width="8" height="40"/><rect class="icon-stat-cls-4" x="143.37" y="86" width="8" height="28"/><rect class="icon-stat-cls-4" x="155.37" y="74" width="8" height="40"/><rect class="icon-stat-cls-4" x="167.37" y="62" width="8" height="52"/><rect class="icon-stat-cls-3" x="83.37" y="90" width="8" height="4"/><rect class="icon-stat-cls-3" x="95.37" y="78" width="8" height="4"/><rect class="icon-stat-cls-3" x="107.37" y="62" width="8" height="4"/><rect class="icon-stat-cls-3" x="119.37" y="74" width="8" height="4"/><rect class="icon-stat-cls-3" x="131.37" y="66" width="8" height="4"/><rect class="icon-stat-cls-3" x="143.37" y="78" width="8" height="4"/><rect class="icon-stat-cls-3" x="155.37" y="66" width="8" height="4"/><rect class="icon-stat-cls-3" x="167.37" y="54" width="8" height="4"/></g></svg>