<svg id="Layer_1" data-name="Layer 1" xmlns="http://www.w3.org/2000/svg" viewBox="0 0 205.82 177.02" class="icon icon-str"><defs><style>.icon-str-cls-1{fill:#da4453;}.icon-str-cls-2{fill:#fff;}.icon-str-cls-3{fill:#414042;}.icon-str-cls-4{fill:#6cd1f4;}.icon-str-cls-5{fill:#e5576c;}.icon-str-cls-6{fill:#d1d3d4;}.icon-str-cls-7{fill:#e6e7e8;}.icon-str-cls-8{fill:#ef606a;}</style></defs><title>img_block_4</title><path class="icon-str-cls-1" d="M145.7,171.39H58.21v-.85H145.7a6.39,6.39,0,0,0,6.38-6.38v-7.55a7.39,7.39,0,0,1,7.22-7.35l9.87-.18a6.54,6.54,0,0,0,6.39-6.5v-7.91a6.39,6.39,0,0,0-6.38-6.38H52.83a7.24,7.24,0,0,1-7.23-7.23V95.62a7.24,7.24,0,0,1,7.23-7.23H77.19A6.39,6.39,0,0,0,83.57,82V57a7.11,7.11,0,0,1,7.24-7.11l56.9,1,0,.85-56.9-1A6.26,6.26,0,0,0,84.42,57V82a7.24,7.24,0,0,1-7.23,7.23H52.83a6.39,6.39,0,0,0-6.38,6.38v25.44a6.39,6.39,0,0,0,6.38,6.38H169.18a7.24,7.24,0,0,1,7.23,7.23v7.91a7.39,7.39,0,0,1-7.22,7.35l-9.87.18a6.54,6.54,0,0,0-6.39,6.5v7.55A7.24,7.24,0,0,1,145.7,171.39Z" transform="translate(-8.37 -24.06)"/><path class="icon-str-cls-2" d="M62.64,124.11v-4.73c0-4.94,6.38-9,14.18-9H91.16c7.8,0,14.18,4,14.18,9v16.35H62.64Z" transform="translate(-8.37 -24.06)"/><path class="icon-str-cls-3" d="M106.19,136.59H61.79v-17.2c0-5.42,6.74-9.83,15-9.83H91.16c8.29,0,15,4.41,15,9.83Zm-42.7-1.7h41v-15.5c0-2.09-1.34-4.08-3.77-5.62a18.07,18.07,0,0,0-9.56-2.51H76.82a18.07,18.07,0,0,0-9.56,2.51c-2.43,1.54-3.77,3.54-3.77,5.62Z" transform="translate(-8.37 -24.06)"/><polygon class="icon-str-cls-2" points="68.45 86.34 75.73 109.08 82.79 86.34 68.45 86.34"/><path class="icon-str-cls-3" d="M83.29,133.4,76,110.66l.81-1.11H91.16l.81,1.1-7.06,22.73ZM78,111.25l6.1,19.05L90,111.25Z" transform="translate(-8.37 -24.06)"/><polygon class="icon-str-cls-2" points="74.4 88.99 71.74 102.7 75.73 109.08 79.5 102.7 76.94 88.99 74.4 88.99"/><path class="icon-str-cls-3" d="M84.12,134.77l-4.9-7.85,2.86-14.73H86l2.75,14.72ZM81,126.59l3.07,4.91,2.9-4.9L84.6,113.9H83.48Z" transform="translate(-8.37 -24.06)"/><rect class="icon-str-cls-2" x="71.74" y="81.74" width="7.76" height="7.25"/><path class="icon-str-cls-3" d="M88.72,113.9H79.26v-8.95h9.46ZM81,112.2H87v-5.55H81Z" transform="translate(-8.37 -24.06)"/><path class="icon-str-cls-2" d="M97.52,94a13.61,13.61,0,0,1-13.44,12.9h-.17A13.61,13.61,0,0,1,70.46,94L70,83.66A12.31,12.31,0,0,1,82.4,70.77h3.18A12.31,12.31,0,0,1,98,83.66Z" transform="translate(-8.37 -24.06)"/><path class="icon-str-cls-3" d="M84.08,107.71h-.17A14.45,14.45,0,0,1,69.61,94l-.43-10.3A13.16,13.16,0,0,1,82.4,69.92h3.18A13.16,13.16,0,0,1,98.8,83.7L98.37,94A14.45,14.45,0,0,1,84.08,107.71ZM82.4,71.62a11.46,11.46,0,0,0-11.52,12l.43,10.3A12.73,12.73,0,0,0,83.91,106h.17A12.73,12.73,0,0,0,96.67,93.92l.43-10.3a11.46,11.46,0,0,0-11.52-12Z" transform="translate(-8.37 -24.06)"/><path class="icon-str-cls-2" d="M116.66,124.11v-4.73c0-4.94,6.38-9,14.18-9h14.34c7.8,0,14.18,4,14.18,9v16.35h-42.7Z" transform="translate(-8.37 -24.06)"/><path class="icon-str-cls-3" d="M160.21,136.59h-44.4v-17.2c0-5.42,6.74-9.83,15-9.83h14.34c8.29,0,15,4.41,15,9.83Zm-42.7-1.7h41v-15.5c0-2.09-1.34-4.08-3.77-5.62a18.07,18.07,0,0,0-9.56-2.51H130.84a18.07,18.07,0,0,0-9.56,2.51c-2.43,1.54-3.77,3.54-3.77,5.62Z" transform="translate(-8.37 -24.06)"/><polygon class="icon-str-cls-2" points="122.47 86.34 129.74 109.08 136.8 86.34 122.47 86.34"/><path class="icon-str-cls-3" d="M137.3,133.4,130,110.66l.81-1.11h14.34l.81,1.1-7.06,22.73ZM132,111.25l6.1,19.05L144,111.25Z" transform="translate(-8.37 -24.06)"/><polygon class="icon-str-cls-2" points="128.42 88.99 125.76 102.7 129.74 109.08 133.51 102.7 130.95 88.99 128.42 88.99"/><path class="icon-str-cls-3" d="M138.13,134.77l-4.9-7.85,2.86-14.73H140l2.75,14.72Zm-3.1-8.18,3.07,4.91,2.9-4.9-2.37-12.7h-1.13Z" transform="translate(-8.37 -24.06)"/><rect class="icon-str-cls-2" x="125.76" y="81.74" width="7.76" height="7.25"/><path class="icon-str-cls-3" d="M142.74,113.9h-9.46v-8.95h9.46ZM135,112.2H141v-5.55H135Z" transform="translate(-8.37 -24.06)"/><path class="icon-str-cls-2" d="M151.54,94a13.61,13.61,0,0,1-13.44,12.9h-.17A13.61,13.61,0,0,1,124.48,94L124,83.66a12.31,12.31,0,0,1,12.37-12.9h3.18A12.31,12.31,0,0,1,152,83.66Z" transform="translate(-8.37 -24.06)"/><path class="icon-str-cls-3" d="M138.09,107.71h-.17A14.45,14.45,0,0,1,123.63,94l-.43-10.3a13.16,13.16,0,0,1,13.22-13.78h3.18A13.16,13.16,0,0,1,152.82,83.7L152.39,94A14.45,14.45,0,0,1,138.09,107.71Zm-1.68-36.09a11.46,11.46,0,0,0-11.52,12l.43,10.3A12.73,12.73,0,0,0,137.92,106h.17a12.73,12.73,0,0,0,12.59-12.08l.43-10.3a11.46,11.46,0,0,0-11.52-12Z" transform="translate(-8.37 -24.06)"/><path class="icon-str-cls-4" d="M84.16,145.12v-6c0-6.22,8-11.31,17.86-11.31h18.05c9.82,0,17.86,5.09,17.86,11.31v20.59H84.16Z" transform="translate(-8.37 -24.06)"/><path class="icon-str-cls-3" d="M138.78,160.61H83.31V139.17c0-6.7,8.39-12.16,18.71-12.16h18.05c10.31,0,18.71,5.45,18.71,12.16ZM85,158.91h52.07V139.17c0-2.71-1.72-5.29-4.85-7.27a23,23,0,0,0-12.16-3.19H102a23,23,0,0,0-12.16,3.19c-3.13,2-4.85,4.56-4.85,7.27Z" transform="translate(-8.37 -24.06)"/><polygon class="icon-str-cls-2" points="93.65 103.8 102.81 132.43 111.7 103.8 93.65 103.8"/><path class="icon-str-cls-3" d="M110.37,156.75l-9.16-28.63L102,127h18.05l.81,1.1L112,156.74Zm-7.18-28,8,24.95,7.75-24.95Z" transform="translate(-8.37 -24.06)"/><polygon class="icon-str-cls-5" points="101.14 107.14 97.79 124.4 102.81 132.43 107.56 124.4 104.33 107.14 101.14 107.14"/><path class="icon-str-cls-3" d="M111.2,158.13l-5.93-9.5,3.55-18.28h4.6l3.41,18.27Zm-4.14-9.84,4.1,6.56L115,148.3,112,132h-1.78Z" transform="translate(-8.37 -24.06)"/><rect class="icon-str-cls-5" x="97.79" y="98.01" width="9.77" height="9.13"/><path class="icon-str-cls-3" d="M116.78,132H105.31V121.22h11.47Zm-9.77-1.7h8.07v-7.43H107Z" transform="translate(-8.37 -24.06)"/><path class="icon-str-cls-2" d="M128.09,107.16a17.14,17.14,0,0,1-16.93,16.24h-.22A17.14,17.14,0,0,1,94,107.16l-.54-13A15.5,15.5,0,0,1,109,78h4a15.5,15.5,0,0,1,15.57,16.24Z" transform="translate(-8.37 -24.06)"/><path class="icon-str-cls-3" d="M111.16,124.25h-.22a18,18,0,0,1-17.78-17.05l-.54-13A16.35,16.35,0,0,1,109,77.1h4a16.35,16.35,0,0,1,16.42,17.12l-.54,13A18,18,0,0,1,111.16,124.25ZM109,78.8A14.65,14.65,0,0,0,94.32,94.16l.54,13a16.25,16.25,0,0,0,16.08,15.42h.22a16.25,16.25,0,0,0,16.08-15.42l.54-13A14.65,14.65,0,0,0,113.05,78.8Z" transform="translate(-8.37 -24.06)"/><path class="icon-str-cls-3" d="M187.78,30.46H177.46V26.27h10.32Zm-9.25-1.08h8.17v-2h-8.17Z" transform="translate(-8.37 -24.06)"/><rect class="icon-str-cls-6" x="154.37" y="5.86" width="39.75" height="28.51"/><path class="icon-str-cls-3" d="M203,59H162.2V29.38H203Zm-39.75-1.08H202V30.46H163.28Z" transform="translate(-8.37 -24.06)"/><rect class="icon-str-cls-7" x="154.37" y="5.86" width="39.75" height="14.26"/><path class="icon-str-cls-3" d="M203,44.71H162.2V29.38H203Zm-39.75-1.08H202V30.46H163.28Z" transform="translate(-8.37 -24.06)"/><rect class="icon-str-cls-4" x="172.22" y="17.23" width="4.05" height="5.77"/><path class="icon-str-cls-3" d="M185.18,47.6h-5.13V40.75h5.13Zm-4.05-1.08h3v-4.7h-3Z" transform="translate(-8.37 -24.06)"/><polygon class="icon-str-cls-2" points="201.83 44.25 205.28 40.81 205.28 18.75 186.45 18.75 186.45 44.25 201.83 44.25"/><path class="icon-str-cls-3" d="M210.42,68.85H194.28V42.27h19.91V65.09Zm-15.06-1.08H210l3.13-3.13V43.34H195.36Z" transform="translate(-8.37 -24.06)"/><polygon class="icon-str-cls-3" points="202.17 44.6 201.09 44.6 201.09 40.08 205.62 40.07 205.62 41.15 202.17 41.15 202.17 44.6"/><rect class="icon-str-cls-3" x="189.83" y="22.46" width="12.07" height="1.08"/><rect class="icon-str-cls-3" x="189.83" y="27.22" width="12.07" height="1.08"/><rect class="icon-str-cls-3" x="189.83" y="30.35" width="12.07" height="1.08"/><rect class="icon-str-cls-3" x="189.83" y="33.47" width="12.07" height="1.08"/><rect class="icon-str-cls-3" x="189.83" y="36.59" width="12.07" height="1.08"/><rect class="icon-str-cls-6" x="167.93" y="0.54" width="12.65" height="2.21"/><path class="icon-str-cls-3" d="M189.48,27.35H175.76V24.06h13.73Zm-12.65-1.08h11.57V25.14H176.83Z" transform="translate(-8.37 -24.06)"/><path class="icon-str-cls-8" d="M116.2,52a5.2,5.2,0,1,0-9.79,2.47l1.34,2.15.44,3h5.61l.51-3,1.26-2.15A5.18,5.18,0,0,0,116.2,52Z" transform="translate(-8.37 -24.06)"/><path class="icon-str-cls-3" d="M114.28,60.2H107.7l-.5-3.36-1.29-2.08a5.77,5.77,0,1,1,10.16,0v0l-1.21,2.06Zm-5.6-1.14h4.64l.45-2.63,1.31-2.23a4.63,4.63,0,1,0-8.18,0l1.39,2.23Z" transform="translate(-8.37 -24.06)"/><path class="icon-str-cls-3" d="M111,59.94l-1.81-6.72h3.94Zm-1.14-6.21,1.18,4.4,1.4-4.4Z" transform="translate(-8.37 -24.06)"/><path class="icon-str-cls-3" d="M114.4,63.59h-6.78V59.06h6.78Zm-5.64-1.14h4.5V60.2h-4.5Z" transform="translate(-8.37 -24.06)"/><rect class="icon-str-cls-8" x="96.55" y="156.23" width="19.39" height="12.36"/><path class="icon-str-cls-3" d="M124.88,193.22H104.36v-13.5h20.52Zm-19.39-1.14h18.25V180.86H105.49Z" transform="translate(-8.37 -24.06)"/><path class="icon-str-cls-3" d="M114.62,187.89l-10.26-5.45v-2.72h20.52v2.72Zm-9.12-6.13,9.12,4.84,9.13-4.84v-.9H105.49Z" transform="translate(-8.37 -24.06)"/><rect class="icon-str-cls-3" x="105.38" y="181.29" width="3.88" height="0.44" transform="translate(-105.28 104.99) rotate(-45)"/><rect class="icon-str-cls-3" x="106.82" y="181.72" width="5.1" height="0.44" transform="translate(-105 106.62) rotate(-45.02)"/><rect class="icon-str-cls-3" x="108.26" y="182.15" width="6.32" height="0.44" transform="translate(-104.69 108.14) rotate(-45)"/><rect class="icon-str-cls-3" x="109.71" y="182.58" width="7.53" height="0.44" transform="translate(-104.39 109.72) rotate(-45)"/><rect class="icon-str-cls-3" x="111.11" y="182.99" width="8.72" height="0.44" transform="translate(-104.09 111.2) rotate(-44.98)"/><rect class="icon-str-cls-3" x="112.55" y="183.42" width="9.93" height="0.44" transform="translate(-103.82 112.89) rotate(-45.02)"/><rect class="icon-str-cls-3" x="117.18" y="182.54" width="7.42" height="0.44" transform="translate(-102.39 115.94) rotate(-45.26)"/><rect class="icon-str-cls-3" x="92.39" y="160.83" width="4.73" height="1.14"/><rect class="icon-str-cls-3" x="88.75" y="162.97" width="11.79" height="1.14"/><rect class="icon-str-cls-3" x="90.86" y="165.28" width="8.34" height="1.14"/><rect class="icon-str-cls-2" x="5.13" y="141.99" width="38.26" height="28.45"/><polygon class="icon-str-cls-3" points="43.95 170.99 4.57 170.99 4.57 141.43 5.69 141.43 5.69 169.88 42.84 169.88 42.84 141.43 43.95 141.43 43.95 170.99"/><circle class="icon-str-cls-8" cx="24.26" cy="175" r="1.49"/><path class="icon-str-cls-3" d="M32.63,201.08a2,2,0,1,1,2-2A2,2,0,0,1,32.63,201.08Zm0-3a.95.95,0,1,0,.95.95A.95.95,0,0,0,32.63,198.11Z" transform="translate(-8.37 -24.06)"/><polygon class="icon-str-cls-6" points="47.93 139.02 0.6 139.02 0.56 141.56 47.93 141.56 47.93 139.02"/><path class="icon-str-cls-3" d="M56.86,166.17H8.37l0-3.65H56.86ZM9.5,165.06H55.75v-1.43H9.52Z" transform="translate(-8.37 -24.06)"/><rect class="icon-str-cls-3" x="23.71" y="169.88" width="1.11" height="3.82"/><path class="icon-str-cls-4" d="M39.18,179.88a6.81,6.81,0,1,1-6.81-6.81v6.81Z" transform="translate(-8.37 -24.06)"/><path class="icon-str-cls-3" d="M32.36,187.23a7.35,7.35,0,0,1,0-14.7h.54v6.81h6.81v.54A7.36,7.36,0,0,1,32.36,187.23Zm-.54-13.61a6.28,6.28,0,1,0,6.79,6.79H31.83Z" transform="translate(-8.37 -24.06)"/><path class="icon-str-cls-8" d="M34.13,171.31a6.81,6.81,0,0,1,6.81,6.81H34.13Z" transform="translate(-8.37 -24.06)"/><path class="icon-str-cls-3" d="M41.48,178.66H33.59v-7.89h.54a7.36,7.36,0,0,1,7.35,7.35Zm-6.81-1.08h5.72a6.29,6.29,0,0,0-5.72-5.72Z" transform="translate(-8.37 -24.06)"/></svg>