<svg xmlns="http://www.w3.org/2000/svg" viewBox="0 0 256.37 256.37" class="icon icon-tools"><defs><style>.icon-tools-cls-1{fill:#b4f0e0;}.icon-tools-cls-2{fill:#2d2d2e;}.icon-tools-cls-3{fill:#595857;}.icon-tools-cls-4{fill:#e8e6e4;}.icon-tools-cls-5{fill:#ff7552;}.icon-tools-cls-6{fill:#fff;}.icon-tools-cls-7{fill:#a8a7a5;}</style></defs><title>ic</title><g id="Layer_4" data-name="Layer 4"><polygon class="icon-tools-cls-1" points="174.37 136 174.37 142 172.37 146 174.37 150 174.37 176 170.37 180 166.37 180 162.37 176 162.37 150 164.37 146 162.37 142 162.37 136 174.37 136"/><path class="icon-tools-cls-2" d="M171.2,182h-5.66l-5.17-5.17v-27.3l1.76-3.53-1.76-3.53V134h16v8.47L174.61,146l1.76,3.53v27.3Zm-4-4h2.34l2.83-2.83v-24.7L170.14,146l2.24-4.47V138h-8v3.53l2.24,4.47-2.24,4.47v24.7Z"/><rect class="icon-tools-cls-2" x="166.37" y="96" width="4" height="40"/><path class="icon-tools-cls-2" d="M172.37,98h-8V86h8Zm-4-4v0Z"/><rect class="icon-tools-cls-3" x="136.37" y="54" width="16" height="128"/><polygon class="icon-tools-cls-4" points="174.37 76 174.37 60 130.37 60 114.37 68 114.37 76 174.37 76"/><path class="icon-tools-cls-2" d="M176.37,78h-64V66.76L129.9,58h46.47Zm-60-4h56V62H130.85l-14.47,7.24Z"/><rect class="icon-tools-cls-2" x="164.37" y="60" width="4" height="16"/><rect class="icon-tools-cls-2" x="100.37" y="94" width="4" height="4"/><rect class="icon-tools-cls-2" x="108.37" y="94" width="4" height="4"/><rect class="icon-tools-cls-2" x="116.37" y="94" width="4" height="4"/><path class="icon-tools-cls-5" d="M148,148.91a34.36,34.36,0,0,0,0-9.82l-8.07-2c-.17-.71-.33-1.43-.55-2.12l6-5.77a37.92,37.92,0,0,0-5-8.47l-8,2.3c-.47-.49-1-1-1.45-1.41l2.28-8a37.86,37.86,0,0,0-8.67-4.89l-5.84,6c-.57-.16-1.15-.32-1.73-.45l-2-8a35,35,0,0,0-9,0l-2,8c-.59.13-1.16.28-1.73.45l-5.84-6a37.86,37.86,0,0,0-8.67,4.89l2.28,8c-.5.46-1,.92-1.45,1.41l-8-2.3a37.93,37.93,0,0,0-5,8.47l6,5.77c-.22.69-.38,1.41-.55,2.12l-8.07,2a34.36,34.36,0,0,0,0,9.82l8.07,2c.17.71.33,1.43.55,2.12l-6,5.77a37.93,37.93,0,0,0,5,8.47l8-2.3c.47.49,1,1,1.45,1.41l-2.28,8a37.86,37.86,0,0,0,8.67,4.89l5.84-6c.57.16,1.15.32,1.73.45l2,8a35,35,0,0,0,9,0l2-8c.59-.13,1.16-.28,1.73-.45l5.84,6a37.86,37.86,0,0,0,8.67-4.89l-2.28-8c.5-.46,1-.92,1.45-1.41l8,2.3a37.92,37.92,0,0,0,5-8.47l-6-5.77c.22-.69.38-1.41.55-2.12Z"/><circle class="icon-tools-cls-6" cx="110.37" cy="144" r="16"/><circle class="icon-tools-cls-7" cx="110.37" cy="144" r="10"/><path class="icon-tools-cls-2" d="M110.37,162a18,18,0,1,1,18-18A18,18,0,0,1,110.37,162Zm0-32a14,14,0,1,0,14,14A14,14,0,0,0,110.37,130Z"/></g></svg>